M48
;GenerationSoftware,Autodesk,EAGLE,9.1.0*%
;CreationDate,2018-08-15T17:09:03Z*%
FMAT,2
ICI,OFF
METRIC,TZ,000.000
T1C0.300
%
G90
M71
T1
X2665Y34670
X2665Y33400
X3300Y34035
X3300Y32765
X3935Y34670
X3935Y33400
X4570Y34035
X4570Y32765
X5205Y34670
X5205Y33400
X5840Y34035
X5840Y32765
X6475Y34670
X6475Y33400
X7110Y34035
X7110Y32765
X7745Y34670
X7745Y33400
X8380Y34035
X8380Y32765
X9015Y34670
X9015Y33400
X9650Y34035
X9650Y32765
X10285Y34670
X10285Y33400
X10920Y34035
X10920Y32765
X11555Y34670
X11555Y33400
X12190Y34035
X12190Y32765
X12825Y34670
X12825Y33400
X13460Y34035
X13460Y32765
X14095Y34670
X14095Y33400
X14730Y34035
X14730Y32765
X15365Y34670
X15365Y33400
X16000Y34035
X16000Y32765
X16635Y34670
X16635Y33400
X17270Y34035
X17270Y32765
X17905Y34670
X17905Y33400
X18540Y34035
X18540Y32765
X19175Y34670
X19175Y33400
X19810Y34035
X19810Y32765
X20445Y34670
X20445Y33400
X21080Y34035
X21080Y32765
X21715Y34670
X21715Y33400
X22350Y34035
X22350Y32765
X22985Y34670
X22985Y33400
X23620Y34035
X23620Y32765
X24255Y34670
X24255Y33400
X24890Y34035
X24890Y32765
X25525Y34670
X25525Y33400
X26160Y34035
X26160Y32765
X26795Y34670
X26795Y33400
X27430Y34035
X27430Y32765
X2665Y40385
X2665Y39115
X3300Y39750
X3300Y38480
X3935Y40385
X3935Y39115
X4570Y39750
X4570Y38480
X5205Y40385
X5205Y39115
X5840Y39750
X5840Y38480
X6475Y40385
X6475Y39115
X7110Y39750
X7110Y38480
X7745Y40385
X7745Y39115
X8380Y39750
X8380Y38480
X9015Y40385
X9015Y39115
X9650Y39750
X9650Y38480
X10285Y40385
X10285Y39115
X10920Y39750
X10920Y38480
X11555Y40385
X11555Y39115
X12190Y39750
X12190Y38480
X12825Y40385
X12825Y39115
X13460Y39750
X13460Y38480
X14095Y40385
X14095Y39115
X14730Y39750
X14730Y38480
X15365Y40385
X15365Y39115
X16000Y39750
X16000Y38480
X16635Y40385
X16635Y39115
X17270Y39750
X17270Y38480
X17905Y40385
X17905Y39115
X18540Y39750
X18540Y38480
X19175Y40385
X19175Y39115
X19810Y39750
X19810Y38480
X20445Y40385
X20445Y39115
X21080Y39750
X21080Y38480
X21715Y40385
X21715Y39115
X22350Y39750
X22350Y38480
X22985Y40385
X22985Y39115
X23620Y39750
X23620Y38480
X24255Y40385
X24255Y39115
X24890Y39750
X24890Y38480
X25525Y40385
X25525Y39115
X26160Y39750
X26160Y38480
X26795Y40385
X26795Y39115
X27430Y39750
X27430Y38480
X2665Y46100
X2665Y44830
X3300Y45465
X3300Y44195
X3935Y46100
X3935Y44830
X4570Y45465
X4570Y44195
X5205Y46100
X5205Y44830
X5840Y45465
X5840Y44195
X6475Y46100
X6475Y44830
X7110Y45465
X7110Y44195
X7745Y46100
X7745Y44830
X8380Y45465
X8380Y44195
X9015Y46100
X9015Y44830
X9650Y45465
X9650Y44195
X10285Y46100
X10285Y44830
X10920Y45465
X10920Y44195
X11555Y46100
X11555Y44830
X12190Y45465
X12190Y44195
X12825Y46100
X12825Y44830
X13460Y45465
X13460Y44195
X14095Y46100
X14095Y44830
X14730Y45465
X14730Y44195
X15365Y46100
X15365Y44830
X16000Y45465
X16000Y44195
X16635Y46100
X16635Y44830
X17270Y45465
X17270Y44195
X17905Y46100
X17905Y44830
X18540Y45465
X18540Y44195
X19175Y46100
X19175Y44830
X19810Y45465
X19810Y44195
X20445Y46100
X20445Y44830
X21080Y45465
X21080Y44195
X21715Y46100
X21715Y44830
X22350Y45465
X22350Y44195
X22985Y46100
X22985Y44830
X23620Y45465
X23620Y44195
X24255Y46100
X24255Y44830
X24890Y45465
X24890Y44195
X25525Y46100
X25525Y44830
X26160Y45465
X26160Y44195
X26795Y46100
X26795Y44830
X27430Y45465
X27430Y44195
X32510Y46100
X32510Y44830
X33145Y45465
X33145Y44195
X33780Y46100
X33780Y44830
X34415Y45465
X34415Y44195
X35050Y46100
X35050Y44830
X35685Y45465
X35685Y44195
X36320Y46100
X36320Y44830
X36955Y45465
X36955Y44195
X37590Y46100
X37590Y44830
X38225Y45465
X38225Y44195
X38860Y46100
X38860Y44830
X39495Y45465
X39495Y44195
X40130Y46100
X40130Y44830
X40765Y45465
X40765Y44195
X41400Y46100
X41400Y44830
X42035Y45465
X42035Y44195
X42670Y46100
X42670Y44830
X43305Y45465
X43305Y44195
X43940Y46100
X43940Y44830
X44575Y45465
X44575Y44195
X45210Y46100
X45210Y44830
X45845Y45465
X45845Y44195
X46480Y46100
X46480Y44830
X47115Y45465
X47115Y44195
X32510Y40385
X32510Y39115
X33145Y39750
X33145Y38480
X33780Y40385
X33780Y39115
X34415Y39750
X34415Y38480
X35050Y40385
X35050Y39115
X35685Y39750
X35685Y38480
X36320Y40385
X36320Y39115
X36955Y39750
X36955Y38480
X37590Y40385
X37590Y39115
X38225Y39750
X38225Y38480
X38860Y40385
X38860Y39115
X39495Y39750
X39495Y38480
X40130Y40385
X40130Y39115
X40765Y39750
X40765Y38480
X41400Y40385
X41400Y39115
X42035Y39750
X42035Y38480
X42670Y40385
X42670Y39115
X43305Y39750
X43305Y38480
X43940Y40385
X43940Y39115
X44575Y39750
X44575Y38480
X45210Y40385
X45210Y39115
X45845Y39750
X45845Y38480
X46480Y40385
X46480Y39115
X47115Y39750
X47115Y38480
X32510Y34670
X32510Y33400
X33145Y34035
X33145Y32765
X33780Y34670
X33780Y33400
X34415Y34035
X34415Y32765
X35050Y34670
X35050Y33400
X35685Y34035
X35685Y32765
X36320Y34670
X36320Y33400
X36955Y34035
X36955Y32765
X37590Y34670
X37590Y33400
X38225Y34035
X38225Y32765
X38860Y34670
X38860Y33400
X39495Y34035
X39495Y32765
X40130Y34670
X40130Y33400
X40765Y34035
X40765Y32765
X41400Y34670
X41400Y33400
X42035Y34035
X42035Y32765
X42670Y34670
X42670Y33400
X43305Y34035
X43305Y32765
X43940Y34670
X43940Y33400
X44575Y34035
X44575Y32765
X45210Y34670
X45210Y33400
X45845Y34035
X45845Y32765
X46480Y34670
X46480Y33400
X47115Y34035
X47115Y32765
X2665Y17525
X2665Y16255
X3300Y16890
X3300Y15620
X3935Y17525
X3935Y16255
X4570Y16890
X4570Y15620
X5205Y17525
X5205Y16255
X5840Y16890
X5840Y15620
X6475Y17525
X6475Y16255
X7110Y16890
X7110Y15620
X7745Y17525
X7745Y16255
X8380Y16890
X8380Y15620
X9015Y17525
X9015Y16255
X9650Y16890
X9650Y15620
X10285Y17525
X10285Y16255
X10920Y16890
X10920Y15620
X11555Y17525
X11555Y16255
X12190Y16890
X12190Y15620
X12825Y17525
X12825Y16255
X13460Y16890
X13460Y15620
X14095Y17525
X14095Y16255
X14730Y16890
X14730Y15620
X15365Y17525
X15365Y16255
X16000Y16890
X16000Y15620
X16635Y17525
X16635Y16255
X17270Y16890
X17270Y15620
X17905Y17525
X17905Y16255
X18540Y16890
X18540Y15620
X19175Y17525
X19175Y16255
X19810Y16890
X19810Y15620
X20445Y17525
X20445Y16255
X21080Y16890
X21080Y15620
X21715Y17525
X21715Y16255
X22350Y16890
X22350Y15620
X22985Y17525
X22985Y16255
X23620Y16890
X23620Y15620
X24255Y17525
X24255Y16255
X24890Y16890
X24890Y15620
X25525Y17525
X25525Y16255
X26160Y16890
X26160Y15620
X26795Y17525
X26795Y16255
X27430Y16890
X27430Y15620
X2665Y23240
X2665Y21970
X3300Y22605
X3300Y21335
X3935Y23240
X3935Y21970
X4570Y22605
X4570Y21335
X5205Y23240
X5205Y21970
X5840Y22605
X5840Y21335
X6475Y23240
X6475Y21970
X7110Y22605
X7110Y21335
X7745Y23240
X7745Y21970
X8380Y22605
X8380Y21335
X9015Y23240
X9015Y21970
X9650Y22605
X9650Y21335
X10285Y23240
X10285Y21970
X10920Y22605
X10920Y21335
X11555Y23240
X11555Y21970
X12190Y22605
X12190Y21335
X12825Y23240
X12825Y21970
X13460Y22605
X13460Y21335
X14095Y23240
X14095Y21970
X14730Y22605
X14730Y21335
X15365Y23240
X15365Y21970
X16000Y22605
X16000Y21335
X16635Y23240
X16635Y21970
X17270Y22605
X17270Y21335
X17905Y23240
X17905Y21970
X18540Y22605
X18540Y21335
X19175Y23240
X19175Y21970
X19810Y22605
X19810Y21335
X20445Y23240
X20445Y21970
X21080Y22605
X21080Y21335
X21715Y23240
X21715Y21970
X22350Y22605
X22350Y21335
X22985Y23240
X22985Y21970
X23620Y22605
X23620Y21335
X24255Y23240
X24255Y21970
X24890Y22605
X24890Y21335
X25525Y23240
X25525Y21970
X26160Y22605
X26160Y21335
X26795Y23240
X26795Y21970
X27430Y22605
X27430Y21335
X2665Y28955
X2665Y27685
X3300Y28320
X3300Y27050
X3935Y28955
X3935Y27685
X4570Y28320
X4570Y27050
X5205Y28955
X5205Y27685
X5840Y28320
X5840Y27050
X6475Y28955
X6475Y27685
X7110Y28320
X7110Y27050
X7745Y28955
X7745Y27685
X8380Y28320
X8380Y27050
X9015Y28955
X9015Y27685
X9650Y28320
X9650Y27050
X10285Y28955
X10285Y27685
X10920Y28320
X10920Y27050
X11555Y28955
X11555Y27685
X12190Y28320
X12190Y27050
X12825Y28955
X12825Y27685
X13460Y28320
X13460Y27050
X14095Y28955
X14095Y27685
X14730Y28320
X14730Y27050
X15365Y28955
X15365Y27685
X16000Y28320
X16000Y27050
X16635Y28955
X16635Y27685
X17270Y28320
X17270Y27050
X17905Y28955
X17905Y27685
X18540Y28320
X18540Y27050
X19175Y28955
X19175Y27685
X19810Y28320
X19810Y27050
X20445Y28955
X20445Y27685
X21080Y28320
X21080Y27050
X21715Y28955
X21715Y27685
X22350Y28320
X22350Y27050
X22985Y28955
X22985Y27685
X23620Y28320
X23620Y27050
X24255Y28955
X24255Y27685
X24890Y28320
X24890Y27050
X25525Y28955
X25525Y27685
X26160Y28320
X26160Y27050
X26795Y28955
X26795Y27685
X27430Y28320
X27430Y27050
X32510Y28955
X32510Y27685
X33145Y28320
X33145Y27050
X33780Y28955
X33780Y27685
X34415Y28320
X34415Y27050
X35050Y28955
X35050Y27685
X35685Y28320
X35685Y27050
X36320Y28955
X36320Y27685
X36955Y28320
X36955Y27050
X37590Y28955
X37590Y27685
X38225Y28320
X38225Y27050
X38860Y28955
X38860Y27685
X39495Y28320
X39495Y27050
X40130Y28955
X40130Y27685
X40765Y28320
X40765Y27050
X41400Y28955
X41400Y27685
X42035Y28320
X42035Y27050
X42670Y28955
X42670Y27685
X43305Y28320
X43305Y27050
X43940Y28955
X43940Y27685
X44575Y28320
X44575Y27050
X45210Y28955
X45210Y27685
X45845Y28320
X45845Y27050
X46480Y28955
X46480Y27685
X47115Y28320
X47115Y27050
X32510Y23240
X32510Y21970
X33145Y22605
X33145Y21335
X33780Y23240
X33780Y21970
X34415Y22605
X34415Y21335
X35050Y23240
X35050Y21970
X35685Y22605
X35685Y21335
X36320Y23240
X36320Y21970
X36955Y22605
X36955Y21335
X37590Y23240
X37590Y21970
X38225Y22605
X38225Y21335
X38860Y23240
X38860Y21970
X39495Y22605
X39495Y21335
X40130Y23240
X40130Y21970
X40765Y22605
X40765Y21335
X41400Y23240
X41400Y21970
X42035Y22605
X42035Y21335
X42670Y23240
X42670Y21970
X43305Y22605
X43305Y21335
X43940Y23240
X43940Y21970
X44575Y22605
X44575Y21335
X45210Y23240
X45210Y21970
X45845Y22605
X45845Y21335
X46480Y23240
X46480Y21970
X47115Y22605
X47115Y21335
X32510Y17525
X32510Y16255
X33145Y16890
X33145Y15620
X33780Y17525
X33780Y16255
X34415Y16890
X34415Y15620
X35050Y17525
X35050Y16255
X35685Y16890
X35685Y15620
X36320Y17525
X36320Y16255
X36955Y16890
X36955Y15620
X37590Y17525
X37590Y16255
X38225Y16890
X38225Y15620
X38860Y17525
X38860Y16255
X39495Y16890
X39495Y15620
X40130Y17525
X40130Y16255
X40765Y16890
X40765Y15620
X41400Y17525
X41400Y16255
X42035Y16890
X42035Y15620
X42670Y17525
X42670Y16255
X43305Y16890
X43305Y15620
X43940Y17525
X43940Y16255
X44575Y16890
X44575Y15620
X45210Y17525
X45210Y16255
X45845Y16890
X45845Y15620
X46480Y17525
X46480Y16255
X47115Y16890
X47115Y15620
X2665Y11810
X2665Y10540
X3300Y11175
X3300Y9905
X3935Y11810
X3935Y10540
X4570Y11175
X4570Y9905
X5205Y11810
X5205Y10540
X5840Y11175
X5840Y9905
X6475Y11810
X6475Y10540
X7110Y11175
X7110Y9905
X7745Y11810
X7745Y10540
X8380Y11175
X8380Y9905
X9015Y11810
X9015Y10540
X9650Y11175
X9650Y9905
X10285Y11810
X10285Y10540
X10920Y11175
X10920Y9905
X11555Y11810
X11555Y10540
X12190Y11175
X12190Y9905
X12825Y11810
X12825Y10540
X13460Y11175
X13460Y9905
X14095Y11810
X14095Y10540
X14730Y11175
X14730Y9905
X15365Y11810
X15365Y10540
X16000Y11175
X16000Y9905
X16635Y11810
X16635Y10540
X17270Y11175
X17270Y9905
X17905Y11810
X17905Y10540
X18540Y11175
X18540Y9905
X19175Y11810
X19175Y10540
X19810Y11175
X19810Y9905
X20445Y11810
X20445Y10540
X21080Y11175
X21080Y9905
X21715Y11810
X21715Y10540
X22350Y11175
X22350Y9905
X22985Y11810
X22985Y10540
X23620Y11175
X23620Y9905
X24255Y11810
X24255Y10540
X24890Y11175
X24890Y9905
X25525Y11810
X25525Y10540
X26160Y11175
X26160Y9905
X26795Y11810
X26795Y10540
X27430Y11175
X27430Y9905
X32510Y11810
X32510Y10540
X33145Y11175
X33145Y9905
X33780Y11810
X33780Y10540
X34415Y11175
X34415Y9905
X35050Y11810
X35050Y10540
X35685Y11175
X35685Y9905
X36320Y11810
X36320Y10540
X36955Y11175
X36955Y9905
X37590Y11810
X37590Y10540
X38225Y11175
X38225Y9905
X38860Y11810
X38860Y10540
X39495Y11175
X39495Y9905
X40130Y11810
X40130Y10540
X40765Y11175
X40765Y9905
X41400Y11810
X41400Y10540
X42035Y11175
X42035Y9905
X42670Y11810
X42670Y10540
X43305Y11175
X43305Y9905
X43940Y11810
X43940Y10540
X44575Y11175
X44575Y9905
X45210Y11810
X45210Y10540
X45845Y11175
X45845Y9905
X46480Y11810
X46480Y10540
X47115Y11175
X47115Y9905
X2665Y6095
X2665Y4825
X3300Y5460
X3300Y4190
X3935Y6095
X3935Y4825
X4570Y5460
X4570Y4190
X5205Y6095
X5205Y4825
X5840Y5460
X5840Y4190
X6475Y6095
X6475Y4825
X7110Y5460
X7110Y4190
X7745Y6095
X7745Y4825
X8380Y5460
X8380Y4190
X9015Y6095
X9015Y4825
X9650Y5460
X9650Y4190
X10285Y6095
X10285Y4825
X10920Y5460
X10920Y4190
X11555Y6095
X11555Y4825
X12190Y5460
X12190Y4190
X12825Y6095
X12825Y4825
X13460Y5460
X13460Y4190
X14095Y6095
X14095Y4825
X14730Y5460
X14730Y4190
X15365Y6095
X15365Y4825
X16000Y5460
X16000Y4190
X16635Y6095
X16635Y4825
X17270Y5460
X17270Y4190
X17905Y6095
X17905Y4825
X18540Y5460
X18540Y4190
X19175Y6095
X19175Y4825
X19810Y5460
X19810Y4190
X20445Y6095
X20445Y4825
X21080Y5460
X21080Y4190
X21715Y6095
X21715Y4825
X22350Y5460
X22350Y4190
X22985Y6095
X22985Y4825
X23620Y5460
X23620Y4190
X24255Y6095
X24255Y4825
X24890Y5460
X24890Y4190
X25525Y6095
X25525Y4825
X26160Y5460
X26160Y4190
X26795Y6095
X26795Y4825
X27430Y5460
X27430Y4190
X32510Y6095
X32510Y4825
X33145Y5460
X33145Y4190
X33780Y6095
X33780Y4825
X34415Y5460
X34415Y4190
X35050Y6095
X35050Y4825
X35685Y5460
X35685Y4190
X36320Y6095
X36320Y4825
X36955Y5460
X36955Y4190
X37590Y6095
X37590Y4825
X38225Y5460
X38225Y4190
X38860Y6095
X38860Y4825
X39495Y5460
X39495Y4190
X40130Y6095
X40130Y4825
X40765Y5460
X40765Y4190
X41400Y6095
X41400Y4825
X42035Y5460
X42035Y4190
X42670Y6095
X42670Y4825
X43305Y5460
X43305Y4190
X43940Y6095
X43940Y4825
X44575Y5460
X44575Y4190
X45210Y6095
X45210Y4825
X45845Y5460
X45845Y4190
X46480Y6095
X46480Y4825
X47115Y5460
X47115Y4190
M30