%
M48
M72
T01C0.01181
%
T01
X13992Y17496
X11492Y19996
X13992Y22496
X16492Y19996
X18992Y22496
X16492Y24996
X21492Y24996
X23992Y22496
X26492Y19996
X28992Y22496
X26492Y24996
X31492Y24996
X33992Y22496
X36492Y19996
X38992Y22496
X36492Y24996
X41492Y24996
X43992Y22496
X46492Y19996
X48992Y22496
X46492Y24996
X51492Y24996
X53992Y22496
X56492Y19996
X58992Y22496
X56492Y24996
X61492Y24996
X63992Y22496
X66492Y19996
X68992Y22496
X66492Y24996
X71492Y24996
X73992Y22496
X76492Y19996
X78992Y22496
X76492Y24996
X81492Y24996
X83992Y22496
X86492Y19996
X88992Y22496
X86492Y24996
X91492Y24996
X93992Y22496
X91492Y19996
X88992Y17496
X83992Y17496
X81492Y19996
X78992Y17496
X73992Y17496
X71492Y19996
X68992Y17496
X63992Y17496
X61492Y19996
X58992Y17496
X53992Y17496
X51492Y19996
X48992Y17496
X43992Y17496
X41492Y19996
X38992Y17496
X33992Y17496
X31492Y19996
X28992Y17496
X23992Y17496
X21492Y19996
X18992Y17496
X11492Y24996
X13992Y39996
X16492Y42496
X13992Y44996
X16492Y47496
X18992Y44996
X21492Y42496
X18992Y39996
X23992Y39996
X26492Y42496
X23992Y44996
X26492Y47496
X28992Y44996
X31492Y42496
X28992Y39996
X33992Y39996
X36492Y42496
X33992Y44996
X36492Y47496
X38992Y44996
X41492Y42496
X38992Y39996
X43992Y39996
X46492Y42496
X43992Y44996
X46492Y47496
X48992Y44996
X51492Y42496
X48992Y39996
X53992Y39996
X56492Y42496
X53992Y44996
X56492Y47496
X58992Y44996
X61492Y42496
X58992Y39996
X63992Y39996
X66492Y42496
X63992Y44996
X66492Y47496
X68992Y44996
X71492Y42496
X68992Y39996
X73992Y39996
X76492Y42496
X73992Y44996
X76492Y47496
X78992Y44996
X81492Y42496
X78992Y39996
X83992Y39996
X86492Y42496
X83992Y44996
X86492Y47496
X88992Y44996
X91492Y42496
X93992Y39996
X96492Y42496
X93992Y44996
X91492Y47496
X96492Y47496
X98992Y44996
X101492Y42496
X103992Y39996
X106492Y42496
X103992Y44996
X101492Y47496
X106492Y47496
X108992Y44996
X108992Y39996
X98992Y39996
X88992Y39996
X81492Y47496
X71492Y47496
X61492Y47496
X51492Y47496
X41492Y47496
X31492Y47496
X21492Y47496
X11492Y47496
X11492Y42496
X13992Y62496
X16492Y64996
X13992Y67496
X11492Y64996
X11492Y69996
X16492Y69996
X18992Y67496
X21492Y64996
X18992Y62496
X23992Y62496
X26492Y64996
X23992Y67496
X21492Y69996
X26492Y69996
X28992Y67496
X31492Y64996
X28992Y62496
X33992Y62496
X36492Y64996
X33992Y67496
X31492Y69996
X36492Y69996
X38992Y67496
X41492Y64996
X38992Y62496
X43992Y62496
X46492Y64996
X43992Y67496
X41492Y69996
X46492Y69996
X48992Y67496
X51492Y64996
X48992Y62496
X53992Y62496
X56492Y64996
X53992Y67496
X51492Y69996
X56492Y69996
X58992Y67496
X61492Y64996
X58992Y62496
X63992Y62496
X66492Y64996
X63992Y67496
X61492Y69996
X66492Y69996
X68992Y67496
X71492Y64996
X68992Y62496
X73992Y62496
X76492Y64996
X73992Y67496
X71492Y69996
X76492Y69996
X78992Y67496
X81492Y64996
X78992Y62496
X83992Y62496
X86492Y64996
X83992Y67496
X81492Y69996
X86492Y69996
X88992Y67496
X91492Y64996
X93992Y62496
X96492Y64996
X93992Y67496
X91492Y69996
X96492Y69996
X98992Y67496
X101492Y64996
X103992Y62496
X106492Y64996
X103992Y67496
X101492Y69996
X106492Y69996
X108992Y67496
X108992Y62496
X98992Y62496
X88992Y62496
X88992Y84996
X86492Y87496
X83992Y89996
X86492Y92496
X88992Y89996
X91492Y87496
X93992Y89996
X91492Y92496
X96492Y92496
X98992Y89996
X96492Y87496
X93992Y84996
X98992Y84996
X101492Y87496
X103992Y89996
X101492Y92496
X106492Y92496
X108992Y89996
X106492Y87496
X103992Y84996
X108992Y84996
X128992Y87496
X131492Y84996
X133992Y87496
X131492Y89996
X133992Y92496
X136492Y89996
X138992Y87496
X136492Y84996
X141492Y84996
X143992Y87496
X141492Y89996
X143992Y92496
X146492Y89996
X148992Y87496
X146492Y84996
X151492Y84996
X153992Y87496
X151492Y89996
X153992Y92496
X156492Y89996
X158992Y87496
X156492Y84996
X161492Y84996
X163992Y87496
X161492Y89996
X163992Y92496
X166492Y89996
X168992Y87496
X166492Y84996
X171492Y84996
X173992Y87496
X171492Y89996
X173992Y92496
X176492Y89996
X178992Y87496
X181492Y89996
X178992Y92496
X183992Y92496
X186492Y89996
X183992Y87496
X181492Y84996
X186492Y84996
X176492Y84996
X168992Y92496
X158992Y92496
X148992Y92496
X138992Y92496
X128992Y92496
X131492Y107496
X133992Y109996
X131492Y112496
X133992Y114996
X136492Y112496
X138992Y109996
X136492Y107496
X141492Y107496
X143992Y109996
X141492Y112496
X143992Y114996
X146492Y112496
X148992Y109996
X146492Y107496
X151492Y107496
X153992Y109996
X151492Y112496
X153992Y114996
X156492Y112496
X158992Y109996
X156492Y107496
X161492Y107496
X163992Y109996
X161492Y112496
X163992Y114996
X166492Y112496
X168992Y109996
X166492Y107496
X171492Y107496
X173992Y109996
X171492Y112496
X173992Y114996
X176492Y112496
X178992Y109996
X181492Y107496
X183992Y109996
X181492Y112496
X178992Y114996
X183992Y114996
X186492Y112496
X186492Y107496
X176492Y107496
X168992Y114996
X158992Y114996
X148992Y114996
X138992Y114996
X128992Y114996
X128992Y109996
X108992Y107496
X106492Y109996
X103992Y107496
X101492Y109996
X103992Y112496
X101492Y114996
X98992Y112496
X96492Y109996
X93992Y107496
X91492Y109996
X93992Y112496
X91492Y114996
X88992Y112496
X86492Y109996
X83992Y107496
X81492Y109996
X78992Y107496
X76492Y109996
X73992Y107496
X71492Y109996
X68992Y107496
X66492Y109996
X63992Y107496
X61492Y109996
X58992Y107496
X56492Y109996
X53992Y107496
X51492Y109996
X48992Y107496
X46492Y109996
X43992Y107496
X41492Y109996
X38992Y107496
X36492Y109996
X33992Y107496
X31492Y109996
X28992Y107496
X26492Y109996
X23992Y107496
X21492Y109996
X18992Y107496
X16492Y109996
X13992Y107496
X11492Y109996
X13992Y112496
X16492Y114996
X18992Y112496
X21492Y114996
X23992Y112496
X26492Y114996
X28992Y112496
X31492Y114996
X33992Y112496
X36492Y114996
X38992Y112496
X41492Y114996
X43992Y112496
X46492Y114996
X48992Y112496
X51492Y114996
X53992Y112496
X56492Y114996
X58992Y112496
X61492Y114996
X63992Y112496
X66492Y114996
X68992Y112496
X71492Y114996
X73992Y112496
X76492Y114996
X78992Y112496
X81492Y114996
X83992Y112496
X86492Y114996
X88992Y107496
X96492Y114996
X98992Y107496
X106492Y114996
X108992Y112496
X108992Y129996
X106492Y132496
X103992Y129996
X101492Y132496
X103992Y134996
X101492Y137496
X98992Y134996
X96492Y132496
X93992Y129996
X91492Y132496
X93992Y134996
X91492Y137496
X88992Y134996
X86492Y132496
X83992Y129996
X81492Y132496
X78992Y129996
X76492Y132496
X73992Y129996
X71492Y132496
X68992Y129996
X66492Y132496
X63992Y129996
X61492Y132496
X58992Y129996
X56492Y132496
X53992Y129996
X51492Y132496
X48992Y129996
X46492Y132496
X43992Y129996
X41492Y132496
X38992Y129996
X36492Y132496
X33992Y129996
X31492Y132496
X28992Y129996
X26492Y132496
X23992Y129996
X21492Y132496
X18992Y129996
X16492Y132496
X13992Y129996
X11492Y132496
X13992Y134996
X11492Y137496
X16492Y137496
X18992Y134996
X21492Y137496
X23992Y134996
X26492Y137496
X28992Y134996
X31492Y137496
X33992Y134996
X36492Y137496
X38992Y134996
X41492Y137496
X43992Y134996
X46492Y137496
X48992Y134996
X51492Y137496
X53992Y134996
X56492Y137496
X58992Y134996
X61492Y137496
X63992Y134996
X66492Y137496
X68992Y134996
X71492Y137496
X73992Y134996
X76492Y137496
X78992Y134996
X81492Y137496
X83992Y134996
X86492Y137496
X88992Y129996
X96492Y137496
X98992Y129996
X106492Y137496
X108992Y134996
X108992Y152496
X106492Y154996
X103992Y152496
X101492Y154996
X98992Y152496
X96492Y154996
X93992Y152496
X91492Y154996
X88992Y152496
X86492Y154996
X83992Y152496
X81492Y154996
X78992Y152496
X76492Y154996
X73992Y152496
X71492Y154996
X68992Y152496
X66492Y154996
X63992Y152496
X61492Y154996
X58992Y152496
X56492Y154996
X53992Y152496
X51492Y154996
X48992Y152496
X46492Y154996
X43992Y152496
X41492Y154996
X38992Y152496
X36492Y154996
X33992Y152496
X31492Y154996
X28992Y152496
X26492Y154996
X23992Y152496
X21492Y154996
X18992Y152496
X16492Y154996
X13992Y152496
X11492Y154996
X13992Y157496
X16492Y159996
X18992Y157496
X21492Y159996
X23992Y157496
X26492Y159996
X28992Y157496
X31492Y159996
X33992Y157496
X36492Y159996
X38992Y157496
X41492Y159996
X43992Y157496
X46492Y159996
X48992Y157496
X51492Y159996
X53992Y157496
X56492Y159996
X58992Y157496
X61492Y159996
X63992Y157496
X66492Y159996
X68992Y157496
X71492Y159996
X73992Y157496
X76492Y159996
X78992Y157496
X81492Y159996
X83992Y157496
X86492Y159996
X88992Y157496
X91492Y159996
X93992Y157496
X96492Y159996
X98992Y157496
X101492Y159996
X103992Y157496
X106492Y159996
X108992Y157496
X108992Y174996
X106492Y177496
X103992Y174996
X101492Y177496
X103992Y179996
X101492Y182496
X98992Y179996
X96492Y177496
X93992Y174996
X91492Y177496
X93992Y179996
X91492Y182496
X88992Y179996
X86492Y177496
X83992Y174996
X81492Y177496
X78992Y174996
X76492Y177496
X73992Y174996
X71492Y177496
X68992Y174996
X66492Y177496
X63992Y174996
X61492Y177496
X58992Y174996
X56492Y177496
X53992Y174996
X51492Y177496
X48992Y174996
X46492Y177496
X43992Y174996
X41492Y177496
X38992Y174996
X36492Y177496
X33992Y174996
X31492Y177496
X28992Y174996
X26492Y177496
X23992Y174996
X21492Y177496
X18992Y174996
X16492Y177496
X13992Y174996
X11492Y177496
X13992Y179996
X16492Y182496
X18992Y179996
X21492Y182496
X23992Y179996
X26492Y182496
X28992Y179996
X31492Y182496
X33992Y179996
X36492Y182496
X38992Y179996
X41492Y182496
X43992Y179996
X46492Y182496
X48992Y179996
X51492Y182496
X53992Y179996
X56492Y182496
X58992Y179996
X61492Y182496
X63992Y179996
X66492Y182496
X68992Y179996
X71492Y182496
X73992Y179996
X76492Y182496
X78992Y179996
X81492Y182496
X83992Y179996
X86492Y182496
X88992Y174996
X96492Y182496
X98992Y174996
X106492Y182496
X108992Y179996
X128992Y177496
X131492Y174996
X133992Y177496
X131492Y179996
X133992Y182496
X136492Y179996
X138992Y177496
X136492Y174996
X141492Y174996
X143992Y177496
X141492Y179996
X143992Y182496
X146492Y179996
X148992Y177496
X146492Y174996
X151492Y174996
X153992Y177496
X151492Y179996
X153992Y182496
X156492Y179996
X158992Y177496
X156492Y174996
X161492Y174996
X163992Y177496
X161492Y179996
X163992Y182496
X166492Y179996
X168992Y177496
X166492Y174996
X171492Y174996
X173992Y177496
X171492Y179996
X173992Y182496
X176492Y179996
X178992Y177496
X181492Y174996
X183992Y177496
X181492Y179996
X178992Y182496
X183992Y182496
X186492Y179996
X186492Y174996
X176492Y174996
X168992Y182496
X158992Y182496
X148992Y182496
X138992Y182496
X128992Y182496
X128992Y159996
X131492Y157496
X133992Y159996
X136492Y157496
X138992Y159996
X141492Y157496
X143992Y159996
X146492Y157496
X148992Y159996
X151492Y157496
X153992Y159996
X156492Y157496
X158992Y159996
X161492Y157496
X163992Y159996
X166492Y157496
X168992Y159996
X171492Y157496
X173992Y159996
X176492Y157496
X173992Y154996
X171492Y152496
X168992Y154996
X166492Y152496
X163992Y154996
X161492Y152496
X158992Y154996
X156492Y152496
X153992Y154996
X151492Y152496
X148992Y154996
X146492Y152496
X143992Y154996
X141492Y152496
X138992Y154996
X136492Y152496
X133992Y154996
X131492Y152496
X128992Y154996
X128992Y137496
X131492Y134996
X133992Y132496
X131492Y129996
X128992Y132496
X133992Y137496
X136492Y134996
X138992Y132496
X136492Y129996
X141492Y129996
X143992Y132496
X141492Y134996
X138992Y137496
X143992Y137496
X146492Y134996
X148992Y132496
X146492Y129996
X151492Y129996
X153992Y132496
X151492Y134996
X148992Y137496
X153992Y137496
X156492Y134996
X158992Y132496
X156492Y129996
X161492Y129996
X163992Y132496
X161492Y134996
X158992Y137496
X163992Y137496
X166492Y134996
X168992Y132496
X166492Y129996
X171492Y129996
X173992Y132496
X171492Y134996
X168992Y137496
X173992Y137496
X176492Y134996
X178992Y132496
X181492Y129996
X183992Y132496
X181492Y134996
X178992Y137496
X183992Y137496
X186492Y134996
X186492Y129996
X176492Y129996
X176492Y152496
X178992Y154996
X181492Y152496
X183992Y154996
X186492Y152496
X186492Y157496
X183992Y159996
X181492Y157496
X178992Y159996
X178992Y69996
X176492Y67496
X173992Y64996
X171492Y62496
X168992Y64996
X166492Y62496
X163992Y64996
X161492Y62496
X158992Y64996
X156492Y62496
X153992Y64996
X151492Y62496
X148992Y64996
X146492Y62496
X143992Y64996
X141492Y62496
X138992Y64996
X136492Y62496
X133992Y64996
X131492Y62496
X128992Y64996
X131492Y67496
X128992Y69996
X133992Y69996
X136492Y67496
X138992Y69996
X141492Y67496
X143992Y69996
X146492Y67496
X148992Y69996
X151492Y67496
X153992Y69996
X156492Y67496
X158992Y69996
X161492Y67496
X163992Y69996
X166492Y67496
X168992Y69996
X171492Y67496
X173992Y69996
X178992Y64996
X181492Y62496
X183992Y64996
X181492Y67496
X183992Y69996
X186492Y67496
X186492Y62496
X176492Y62496
X173992Y47496
X171492Y44996
X173992Y42496
X171492Y39996
X168992Y42496
X166492Y39996
X163992Y42496
X161492Y39996
X158992Y42496
X156492Y39996
X153992Y42496
X151492Y39996
X148992Y42496
X146492Y39996
X143992Y42496
X141492Y39996
X138992Y42496
X136492Y39996
X133992Y42496
X131492Y39996
X128992Y42496
X131492Y44996
X133992Y47496
X136492Y44996
X138992Y47496
X141492Y44996
X143992Y47496
X146492Y44996
X148992Y47496
X151492Y44996
X153992Y47496
X156492Y44996
X158992Y47496
X161492Y44996
X163992Y47496
X166492Y44996
X168992Y47496
X176492Y44996
X178992Y42496
X181492Y39996
X183992Y42496
X181492Y44996
X178992Y47496
X183992Y47496
X186492Y44996
X186492Y39996
X176492Y39996
X173992Y24996
X171492Y22496
X173992Y19996
X176492Y22496
X178992Y19996
X181492Y22496
X178992Y24996
X183992Y24996
X186492Y22496
X183992Y19996
X181492Y17496
X186492Y17496
X176492Y17496
X171492Y17496
X168992Y19996
X166492Y22496
X163992Y19996
X161492Y22496
X163992Y24996
X168992Y24996
X166492Y17496
X161492Y17496
X158992Y19996
X156492Y22496
X153992Y19996
X151492Y22496
X153992Y24996
X158992Y24996
X156492Y17496
X151492Y17496
X148992Y19996
X146492Y22496
X143992Y19996
X141492Y22496
X143992Y24996
X148992Y24996
X146492Y17496
X141492Y17496
X138992Y19996
X136492Y22496
X133992Y19996
X131492Y22496
X133992Y24996
X138992Y24996
X136492Y17496
X131492Y17496
X128992Y19996
X128992Y24996
X108992Y22496
X106492Y19996
X103992Y22496
X101492Y19996
X98992Y17496
X96492Y19996
X98992Y22496
X96492Y24996
X101492Y24996
X106492Y24996
X103992Y17496
X108992Y17496
X93992Y17496
X128992Y47496
X83992Y84996
X81492Y87496
X78992Y89996
X76492Y87496
X73992Y89996
X76492Y92496
X81492Y92496
X78992Y84996
X73992Y84996
X71492Y87496
X68992Y89996
X66492Y87496
X63992Y89996
X66492Y92496
X71492Y92496
X68992Y84996
X63992Y84996
X61492Y87496
X58992Y89996
X56492Y87496
X53992Y89996
X56492Y92496
X61492Y92496
X58992Y84996
X53992Y84996
X51492Y87496
X48992Y89996
X46492Y87496
X43992Y89996
X46492Y92496
X51492Y92496
X48992Y84996
X43992Y84996
X41492Y87496
X38992Y89996
X36492Y87496
X33992Y89996
X36492Y92496
X41492Y92496
X38992Y84996
X33992Y84996
X31492Y87496
X28992Y89996
X26492Y87496
X23992Y89996
X26492Y92496
X31492Y92496
X28992Y84996
X23992Y84996
X21492Y87496
X18992Y89996
X16492Y87496
X13992Y89996
X16492Y92496
X21492Y92496
X18992Y84996
X13992Y84996
X11492Y87496
X11492Y92496
X11492Y114996
X11492Y159996
X11492Y182496
M30
