G75*
%MOIN*%
%OFA0B0*%
%FSLAX25Y25*%
%IPPOS*%
%LPD*%
%AMOC8*
5,1,8,0,0,1.08239X$1,22.5*
%
%ADD10C,0.00400*%
%ADD11C,0.00300*%
D10*
X0029565Y0008966D02*
X0030817Y0008282D01*
X0030362Y0006574D02*
X0030278Y0006576D01*
X0030193Y0006581D01*
X0030109Y0006591D01*
X0030026Y0006604D01*
X0029943Y0006620D01*
X0029861Y0006640D01*
X0029780Y0006664D01*
X0029700Y0006691D01*
X0029622Y0006722D01*
X0029544Y0006756D01*
X0029469Y0006794D01*
X0029395Y0006835D01*
X0029323Y0006879D01*
X0029253Y0006926D01*
X0029185Y0006976D01*
X0029119Y0007029D01*
X0029056Y0007085D01*
X0028995Y0007144D01*
X0030818Y0008282D02*
X0030868Y0008250D01*
X0030917Y0008214D01*
X0030963Y0008176D01*
X0031006Y0008135D01*
X0031047Y0008091D01*
X0031085Y0008044D01*
X0031120Y0007995D01*
X0031151Y0007944D01*
X0031179Y0007891D01*
X0031204Y0007836D01*
X0031225Y0007780D01*
X0031242Y0007722D01*
X0031256Y0007664D01*
X0031265Y0007605D01*
X0031271Y0007545D01*
X0031273Y0007485D01*
X0031271Y0007425D01*
X0031265Y0007366D01*
X0031255Y0007307D01*
X0031242Y0007249D01*
X0031225Y0007192D01*
X0031204Y0007136D01*
X0031179Y0007082D01*
X0031151Y0007030D01*
X0031119Y0006979D01*
X0031085Y0006930D01*
X0031047Y0006884D01*
X0031006Y0006841D01*
X0030963Y0006800D01*
X0030917Y0006762D01*
X0030868Y0006728D01*
X0030818Y0006696D01*
X0030765Y0006668D01*
X0030711Y0006643D01*
X0030655Y0006622D01*
X0030598Y0006605D01*
X0030540Y0006592D01*
X0030481Y0006582D01*
X0030422Y0006576D01*
X0030362Y0006574D01*
X0031045Y0010332D02*
X0030981Y0010378D01*
X0030915Y0010421D01*
X0030847Y0010460D01*
X0030778Y0010497D01*
X0030707Y0010530D01*
X0030634Y0010560D01*
X0030560Y0010586D01*
X0030485Y0010609D01*
X0030409Y0010629D01*
X0030332Y0010645D01*
X0030255Y0010658D01*
X0030177Y0010667D01*
X0030098Y0010672D01*
X0030020Y0010674D01*
X0029960Y0010672D01*
X0029901Y0010666D01*
X0029842Y0010656D01*
X0029784Y0010643D01*
X0029727Y0010626D01*
X0029671Y0010605D01*
X0029617Y0010580D01*
X0029565Y0010552D01*
X0029514Y0010520D01*
X0029465Y0010486D01*
X0029419Y0010448D01*
X0029376Y0010407D01*
X0029335Y0010364D01*
X0029297Y0010318D01*
X0029263Y0010269D01*
X0029231Y0010219D01*
X0029203Y0010166D01*
X0029178Y0010112D01*
X0029157Y0010056D01*
X0029140Y0009999D01*
X0029127Y0009941D01*
X0029117Y0009882D01*
X0029111Y0009823D01*
X0029109Y0009763D01*
X0029111Y0009703D01*
X0029117Y0009643D01*
X0029126Y0009584D01*
X0029140Y0009526D01*
X0029157Y0009468D01*
X0029178Y0009412D01*
X0029203Y0009357D01*
X0029231Y0009304D01*
X0029262Y0009253D01*
X0029297Y0009204D01*
X0029335Y0009157D01*
X0029376Y0009113D01*
X0029419Y0009072D01*
X0029465Y0009034D01*
X0029514Y0008998D01*
X0029564Y0008966D01*
X0033087Y0009307D02*
X0033087Y0006574D01*
X0034454Y0006574D02*
X0034454Y0009307D01*
X0035137Y0009307D02*
X0033087Y0009307D01*
X0035137Y0009307D02*
X0035188Y0009305D01*
X0035239Y0009299D01*
X0035289Y0009290D01*
X0035338Y0009277D01*
X0035387Y0009260D01*
X0035433Y0009239D01*
X0035479Y0009215D01*
X0035522Y0009188D01*
X0035563Y0009158D01*
X0035602Y0009125D01*
X0035638Y0009089D01*
X0035671Y0009050D01*
X0035701Y0009009D01*
X0035728Y0008966D01*
X0035752Y0008920D01*
X0035773Y0008874D01*
X0035790Y0008825D01*
X0035803Y0008776D01*
X0035812Y0008726D01*
X0035818Y0008675D01*
X0035820Y0008624D01*
X0035821Y0008624D02*
X0035821Y0006574D01*
X0038503Y0006574D02*
X0039528Y0006574D01*
X0039528Y0008624D01*
X0039528Y0008168D02*
X0038503Y0008168D01*
X0039528Y0008624D02*
X0039526Y0008675D01*
X0039520Y0008726D01*
X0039511Y0008776D01*
X0039498Y0008825D01*
X0039481Y0008874D01*
X0039460Y0008920D01*
X0039436Y0008966D01*
X0039409Y0009009D01*
X0039379Y0009050D01*
X0039346Y0009089D01*
X0039310Y0009125D01*
X0039271Y0009158D01*
X0039230Y0009188D01*
X0039186Y0009215D01*
X0039141Y0009239D01*
X0039095Y0009260D01*
X0039046Y0009277D01*
X0038997Y0009290D01*
X0038947Y0009299D01*
X0038896Y0009305D01*
X0038845Y0009307D01*
X0037934Y0009307D01*
X0038503Y0008168D02*
X0038447Y0008166D01*
X0038392Y0008160D01*
X0038337Y0008151D01*
X0038283Y0008137D01*
X0038230Y0008120D01*
X0038179Y0008099D01*
X0038129Y0008075D01*
X0038081Y0008047D01*
X0038035Y0008016D01*
X0037991Y0007982D01*
X0037949Y0007944D01*
X0037911Y0007904D01*
X0037875Y0007862D01*
X0037842Y0007817D01*
X0037813Y0007769D01*
X0037787Y0007720D01*
X0037764Y0007670D01*
X0037745Y0007617D01*
X0037730Y0007564D01*
X0037718Y0007509D01*
X0037710Y0007454D01*
X0037706Y0007399D01*
X0037706Y0007343D01*
X0037710Y0007288D01*
X0037718Y0007233D01*
X0037730Y0007178D01*
X0037745Y0007125D01*
X0037764Y0007072D01*
X0037787Y0007022D01*
X0037813Y0006972D01*
X0037842Y0006925D01*
X0037875Y0006880D01*
X0037911Y0006838D01*
X0037949Y0006798D01*
X0037991Y0006760D01*
X0038035Y0006726D01*
X0038081Y0006695D01*
X0038129Y0006667D01*
X0038179Y0006643D01*
X0038230Y0006622D01*
X0038283Y0006605D01*
X0038337Y0006591D01*
X0038392Y0006582D01*
X0038447Y0006576D01*
X0038503Y0006574D01*
X0041421Y0007257D02*
X0041421Y0010674D01*
X0043581Y0010674D02*
X0043581Y0007257D01*
X0043582Y0007257D02*
X0043584Y0007206D01*
X0043590Y0007155D01*
X0043599Y0007105D01*
X0043612Y0007056D01*
X0043629Y0007007D01*
X0043650Y0006961D01*
X0043674Y0006916D01*
X0043701Y0006872D01*
X0043731Y0006831D01*
X0043764Y0006792D01*
X0043800Y0006756D01*
X0043839Y0006723D01*
X0043880Y0006693D01*
X0043924Y0006666D01*
X0043969Y0006642D01*
X0044015Y0006621D01*
X0044064Y0006604D01*
X0044113Y0006591D01*
X0044163Y0006582D01*
X0044214Y0006576D01*
X0044265Y0006574D01*
X0045879Y0006574D02*
X0045879Y0010674D01*
X0047701Y0010674D01*
X0049118Y0010674D02*
X0050030Y0010674D01*
X0049574Y0010674D02*
X0049574Y0006574D01*
X0049118Y0006574D02*
X0050030Y0006574D01*
X0051873Y0006574D02*
X0051873Y0010674D01*
X0053012Y0010674D01*
X0053072Y0010672D01*
X0053131Y0010666D01*
X0053190Y0010656D01*
X0053248Y0010643D01*
X0053305Y0010626D01*
X0053361Y0010605D01*
X0053415Y0010580D01*
X0053467Y0010552D01*
X0053518Y0010520D01*
X0053567Y0010486D01*
X0053613Y0010448D01*
X0053656Y0010407D01*
X0053697Y0010364D01*
X0053735Y0010318D01*
X0053769Y0010269D01*
X0053801Y0010219D01*
X0053829Y0010166D01*
X0053854Y0010112D01*
X0053875Y0010056D01*
X0053892Y0009999D01*
X0053905Y0009941D01*
X0053915Y0009882D01*
X0053921Y0009823D01*
X0053923Y0009763D01*
X0053921Y0009703D01*
X0053915Y0009644D01*
X0053905Y0009585D01*
X0053892Y0009527D01*
X0053875Y0009470D01*
X0053854Y0009414D01*
X0053829Y0009360D01*
X0053801Y0009308D01*
X0053769Y0009257D01*
X0053735Y0009208D01*
X0053697Y0009162D01*
X0053656Y0009119D01*
X0053613Y0009078D01*
X0053567Y0009040D01*
X0053518Y0009006D01*
X0053468Y0008974D01*
X0053415Y0008946D01*
X0053361Y0008921D01*
X0053305Y0008900D01*
X0053248Y0008883D01*
X0053190Y0008870D01*
X0053131Y0008860D01*
X0053072Y0008854D01*
X0053012Y0008852D01*
X0051873Y0008852D01*
X0053012Y0008852D02*
X0053078Y0008850D01*
X0053144Y0008844D01*
X0053210Y0008835D01*
X0053275Y0008821D01*
X0053339Y0008804D01*
X0053402Y0008783D01*
X0053463Y0008759D01*
X0053523Y0008731D01*
X0053581Y0008699D01*
X0053638Y0008665D01*
X0053692Y0008627D01*
X0053744Y0008586D01*
X0053794Y0008541D01*
X0053840Y0008495D01*
X0053885Y0008445D01*
X0053926Y0008393D01*
X0053964Y0008339D01*
X0053998Y0008283D01*
X0054030Y0008224D01*
X0054058Y0008164D01*
X0054082Y0008103D01*
X0054103Y0008040D01*
X0054120Y0007976D01*
X0054134Y0007911D01*
X0054143Y0007845D01*
X0054149Y0007779D01*
X0054151Y0007713D01*
X0054149Y0007647D01*
X0054143Y0007581D01*
X0054134Y0007515D01*
X0054120Y0007450D01*
X0054103Y0007386D01*
X0054082Y0007323D01*
X0054058Y0007262D01*
X0054030Y0007202D01*
X0053998Y0007144D01*
X0053964Y0007087D01*
X0053926Y0007033D01*
X0053885Y0006981D01*
X0053840Y0006931D01*
X0053794Y0006885D01*
X0053744Y0006840D01*
X0053692Y0006799D01*
X0053638Y0006761D01*
X0053582Y0006727D01*
X0053523Y0006695D01*
X0053463Y0006667D01*
X0053402Y0006643D01*
X0053339Y0006622D01*
X0053275Y0006605D01*
X0053210Y0006591D01*
X0053144Y0006582D01*
X0053078Y0006576D01*
X0053012Y0006574D01*
X0051873Y0006574D01*
X0055923Y0006574D02*
X0055923Y0010674D01*
X0057062Y0010674D01*
X0057128Y0010672D01*
X0057194Y0010666D01*
X0057260Y0010657D01*
X0057325Y0010643D01*
X0057389Y0010626D01*
X0057452Y0010605D01*
X0057513Y0010581D01*
X0057573Y0010553D01*
X0057631Y0010521D01*
X0057688Y0010487D01*
X0057742Y0010449D01*
X0057794Y0010408D01*
X0057844Y0010363D01*
X0057890Y0010317D01*
X0057935Y0010267D01*
X0057976Y0010215D01*
X0058014Y0010161D01*
X0058048Y0010105D01*
X0058080Y0010046D01*
X0058108Y0009986D01*
X0058132Y0009925D01*
X0058153Y0009862D01*
X0058170Y0009798D01*
X0058184Y0009733D01*
X0058193Y0009667D01*
X0058199Y0009601D01*
X0058201Y0009535D01*
X0058199Y0009469D01*
X0058193Y0009403D01*
X0058184Y0009337D01*
X0058170Y0009272D01*
X0058153Y0009208D01*
X0058132Y0009145D01*
X0058108Y0009084D01*
X0058080Y0009024D01*
X0058048Y0008966D01*
X0058014Y0008909D01*
X0057976Y0008855D01*
X0057935Y0008803D01*
X0057890Y0008753D01*
X0057844Y0008707D01*
X0057794Y0008662D01*
X0057742Y0008621D01*
X0057688Y0008583D01*
X0057632Y0008549D01*
X0057573Y0008517D01*
X0057513Y0008489D01*
X0057452Y0008465D01*
X0057389Y0008444D01*
X0057325Y0008427D01*
X0057260Y0008413D01*
X0057194Y0008404D01*
X0057128Y0008398D01*
X0057062Y0008396D01*
X0055923Y0008396D01*
X0059585Y0010446D02*
X0059813Y0010446D01*
X0059813Y0010674D01*
X0059585Y0010674D01*
X0059585Y0010446D01*
X0059699Y0009307D02*
X0059699Y0006574D01*
X0061488Y0006574D02*
X0061488Y0009307D01*
X0062627Y0009307D01*
X0062678Y0009305D01*
X0062729Y0009299D01*
X0062779Y0009290D01*
X0062828Y0009277D01*
X0062877Y0009260D01*
X0062923Y0009239D01*
X0062968Y0009215D01*
X0063012Y0009188D01*
X0063053Y0009158D01*
X0063092Y0009125D01*
X0063128Y0009089D01*
X0063161Y0009050D01*
X0063191Y0009009D01*
X0063218Y0008966D01*
X0063242Y0008920D01*
X0063263Y0008874D01*
X0063280Y0008825D01*
X0063293Y0008776D01*
X0063302Y0008726D01*
X0063308Y0008675D01*
X0063310Y0008624D01*
X0063310Y0006574D01*
X0065475Y0008168D02*
X0066613Y0007713D01*
X0066613Y0007714D02*
X0066656Y0007695D01*
X0066697Y0007672D01*
X0066737Y0007647D01*
X0066774Y0007618D01*
X0066808Y0007586D01*
X0066840Y0007552D01*
X0066870Y0007516D01*
X0066896Y0007477D01*
X0066919Y0007436D01*
X0066939Y0007394D01*
X0066955Y0007350D01*
X0066968Y0007305D01*
X0066978Y0007259D01*
X0066983Y0007212D01*
X0066985Y0007165D01*
X0066983Y0007119D01*
X0066978Y0007072D01*
X0066968Y0007026D01*
X0066956Y0006981D01*
X0066939Y0006937D01*
X0066920Y0006895D01*
X0066897Y0006854D01*
X0066870Y0006815D01*
X0066841Y0006779D01*
X0066809Y0006744D01*
X0066774Y0006713D01*
X0066737Y0006684D01*
X0066698Y0006658D01*
X0066657Y0006636D01*
X0066614Y0006617D01*
X0066570Y0006601D01*
X0066525Y0006589D01*
X0066479Y0006580D01*
X0066432Y0006575D01*
X0066386Y0006574D01*
X0066727Y0009080D02*
X0066639Y0009118D01*
X0066549Y0009152D01*
X0066458Y0009183D01*
X0066366Y0009211D01*
X0066273Y0009236D01*
X0066179Y0009256D01*
X0066085Y0009274D01*
X0065990Y0009288D01*
X0065894Y0009298D01*
X0065798Y0009305D01*
X0065702Y0009308D01*
X0065656Y0009307D01*
X0065609Y0009302D01*
X0065563Y0009293D01*
X0065518Y0009281D01*
X0065474Y0009265D01*
X0065431Y0009246D01*
X0065390Y0009224D01*
X0065351Y0009198D01*
X0065314Y0009169D01*
X0065279Y0009138D01*
X0065247Y0009103D01*
X0065218Y0009067D01*
X0065191Y0009028D01*
X0065168Y0008987D01*
X0065149Y0008945D01*
X0065132Y0008901D01*
X0065120Y0008856D01*
X0065110Y0008810D01*
X0065105Y0008763D01*
X0065103Y0008717D01*
X0065105Y0008670D01*
X0065110Y0008623D01*
X0065120Y0008577D01*
X0065133Y0008532D01*
X0065149Y0008488D01*
X0065169Y0008446D01*
X0065192Y0008405D01*
X0065218Y0008366D01*
X0065248Y0008330D01*
X0065280Y0008296D01*
X0065314Y0008264D01*
X0065351Y0008235D01*
X0065391Y0008210D01*
X0065432Y0008187D01*
X0065475Y0008168D01*
X0065133Y0006802D02*
X0065243Y0006764D01*
X0065354Y0006730D01*
X0065466Y0006699D01*
X0065579Y0006671D01*
X0065693Y0006647D01*
X0065807Y0006626D01*
X0065922Y0006609D01*
X0066038Y0006595D01*
X0066154Y0006585D01*
X0066270Y0006578D01*
X0066386Y0006574D01*
X0069824Y0006574D02*
X0068457Y0010674D01*
X0071191Y0010674D02*
X0069824Y0006574D01*
X0072693Y0007257D02*
X0072693Y0008396D01*
X0072693Y0007941D02*
X0074515Y0007941D01*
X0074515Y0008396D01*
X0074513Y0008456D01*
X0074507Y0008515D01*
X0074497Y0008574D01*
X0074484Y0008632D01*
X0074467Y0008689D01*
X0074446Y0008745D01*
X0074421Y0008799D01*
X0074393Y0008852D01*
X0074361Y0008902D01*
X0074327Y0008951D01*
X0074289Y0008997D01*
X0074248Y0009040D01*
X0074205Y0009081D01*
X0074159Y0009119D01*
X0074110Y0009153D01*
X0074060Y0009185D01*
X0074007Y0009213D01*
X0073953Y0009238D01*
X0073897Y0009259D01*
X0073840Y0009276D01*
X0073782Y0009289D01*
X0073723Y0009299D01*
X0073664Y0009305D01*
X0073604Y0009307D01*
X0073544Y0009305D01*
X0073485Y0009299D01*
X0073426Y0009289D01*
X0073368Y0009276D01*
X0073311Y0009259D01*
X0073255Y0009238D01*
X0073201Y0009213D01*
X0073149Y0009185D01*
X0073098Y0009153D01*
X0073049Y0009119D01*
X0073003Y0009081D01*
X0072960Y0009040D01*
X0072919Y0008997D01*
X0072881Y0008951D01*
X0072847Y0008902D01*
X0072815Y0008852D01*
X0072787Y0008799D01*
X0072762Y0008745D01*
X0072741Y0008689D01*
X0072724Y0008632D01*
X0072711Y0008574D01*
X0072701Y0008515D01*
X0072695Y0008456D01*
X0072693Y0008396D01*
X0072693Y0007257D02*
X0072695Y0007206D01*
X0072701Y0007155D01*
X0072710Y0007105D01*
X0072723Y0007056D01*
X0072740Y0007007D01*
X0072761Y0006961D01*
X0072785Y0006916D01*
X0072812Y0006872D01*
X0072842Y0006831D01*
X0072875Y0006792D01*
X0072911Y0006756D01*
X0072950Y0006723D01*
X0072991Y0006693D01*
X0073035Y0006666D01*
X0073080Y0006642D01*
X0073126Y0006621D01*
X0073175Y0006604D01*
X0073224Y0006591D01*
X0073274Y0006582D01*
X0073325Y0006576D01*
X0073376Y0006574D01*
X0074515Y0006574D01*
X0076363Y0006574D02*
X0076363Y0009307D01*
X0077729Y0009307D01*
X0077729Y0008852D01*
X0079080Y0009763D02*
X0080219Y0010674D01*
X0080219Y0006574D01*
X0079080Y0006574D02*
X0081358Y0006574D01*
X0082940Y0006574D02*
X0083168Y0006574D01*
X0083168Y0006802D01*
X0082940Y0006802D01*
X0082940Y0006574D01*
X0084750Y0006574D02*
X0087028Y0006574D01*
X0084750Y0006574D02*
X0086686Y0008852D01*
X0086003Y0010674D02*
X0085934Y0010672D01*
X0085865Y0010667D01*
X0085797Y0010658D01*
X0085729Y0010645D01*
X0085662Y0010629D01*
X0085596Y0010609D01*
X0085531Y0010586D01*
X0085467Y0010560D01*
X0085405Y0010530D01*
X0085344Y0010497D01*
X0085285Y0010461D01*
X0085228Y0010422D01*
X0085174Y0010380D01*
X0085121Y0010335D01*
X0085071Y0010288D01*
X0085024Y0010238D01*
X0084979Y0010185D01*
X0084937Y0010130D01*
X0084898Y0010073D01*
X0084862Y0010015D01*
X0084829Y0009954D01*
X0084799Y0009892D01*
X0084773Y0009828D01*
X0084750Y0009763D01*
X0086686Y0008852D02*
X0086731Y0008897D01*
X0086773Y0008945D01*
X0086813Y0008995D01*
X0086849Y0009047D01*
X0086882Y0009101D01*
X0086912Y0009158D01*
X0086939Y0009215D01*
X0086962Y0009275D01*
X0086982Y0009335D01*
X0086999Y0009397D01*
X0087011Y0009459D01*
X0087021Y0009522D01*
X0087026Y0009585D01*
X0087028Y0009649D01*
X0087026Y0009711D01*
X0087021Y0009773D01*
X0087011Y0009834D01*
X0086998Y0009894D01*
X0086982Y0009954D01*
X0086961Y0010012D01*
X0086938Y0010070D01*
X0086911Y0010125D01*
X0086880Y0010179D01*
X0086847Y0010231D01*
X0086810Y0010281D01*
X0086770Y0010329D01*
X0086728Y0010374D01*
X0086683Y0010416D01*
X0086635Y0010456D01*
X0086585Y0010493D01*
X0086533Y0010526D01*
X0086479Y0010557D01*
X0086424Y0010584D01*
X0086366Y0010607D01*
X0086308Y0010628D01*
X0086248Y0010644D01*
X0086188Y0010657D01*
X0086127Y0010667D01*
X0086065Y0010672D01*
X0086003Y0010674D01*
X0093488Y0008624D02*
X0093488Y0007257D01*
X0093490Y0007206D01*
X0093496Y0007155D01*
X0093505Y0007105D01*
X0093518Y0007056D01*
X0093535Y0007007D01*
X0093556Y0006961D01*
X0093580Y0006916D01*
X0093607Y0006872D01*
X0093637Y0006831D01*
X0093670Y0006792D01*
X0093706Y0006756D01*
X0093745Y0006723D01*
X0093786Y0006693D01*
X0093830Y0006666D01*
X0093875Y0006642D01*
X0093921Y0006621D01*
X0093970Y0006604D01*
X0094019Y0006591D01*
X0094069Y0006582D01*
X0094120Y0006576D01*
X0094171Y0006574D01*
X0095082Y0006574D01*
X0091890Y0006118D02*
X0091812Y0006214D01*
X0091737Y0006313D01*
X0091666Y0006414D01*
X0091597Y0006517D01*
X0091532Y0006622D01*
X0091470Y0006729D01*
X0091412Y0006838D01*
X0091357Y0006949D01*
X0091306Y0007061D01*
X0091258Y0007175D01*
X0091214Y0007291D01*
X0091173Y0007408D01*
X0091137Y0007526D01*
X0091104Y0007645D01*
X0091075Y0007765D01*
X0091049Y0007886D01*
X0091028Y0008008D01*
X0091010Y0008131D01*
X0090997Y0008253D01*
X0090987Y0008377D01*
X0090981Y0008500D01*
X0090979Y0008624D01*
X0096493Y0006118D02*
X0096571Y0006214D01*
X0096646Y0006313D01*
X0096717Y0006414D01*
X0096786Y0006517D01*
X0096851Y0006622D01*
X0096913Y0006729D01*
X0096971Y0006838D01*
X0097026Y0006949D01*
X0097077Y0007061D01*
X0097125Y0007175D01*
X0097169Y0007291D01*
X0097210Y0007408D01*
X0097246Y0007526D01*
X0097279Y0007645D01*
X0097308Y0007765D01*
X0097334Y0007886D01*
X0097355Y0008008D01*
X0097373Y0008131D01*
X0097386Y0008254D01*
X0097396Y0008377D01*
X0097402Y0008500D01*
X0097404Y0008624D01*
X0095082Y0009307D02*
X0094171Y0009307D01*
X0094120Y0009305D01*
X0094069Y0009299D01*
X0094019Y0009290D01*
X0093970Y0009277D01*
X0093921Y0009260D01*
X0093875Y0009239D01*
X0093830Y0009215D01*
X0093786Y0009188D01*
X0093745Y0009158D01*
X0093706Y0009125D01*
X0093670Y0009089D01*
X0093637Y0009050D01*
X0093607Y0009009D01*
X0093580Y0008966D01*
X0093556Y0008920D01*
X0093535Y0008874D01*
X0093518Y0008825D01*
X0093505Y0008776D01*
X0093496Y0008726D01*
X0093490Y0008675D01*
X0093488Y0008624D01*
X0096493Y0011130D02*
X0096571Y0011034D01*
X0096646Y0010935D01*
X0096717Y0010834D01*
X0096786Y0010731D01*
X0096851Y0010626D01*
X0096913Y0010519D01*
X0096971Y0010410D01*
X0097026Y0010299D01*
X0097077Y0010187D01*
X0097125Y0010073D01*
X0097169Y0009957D01*
X0097210Y0009840D01*
X0097246Y0009722D01*
X0097279Y0009603D01*
X0097308Y0009483D01*
X0097334Y0009362D01*
X0097355Y0009240D01*
X0097373Y0009117D01*
X0097386Y0008995D01*
X0097396Y0008871D01*
X0097402Y0008748D01*
X0097404Y0008624D01*
X0091890Y0011130D02*
X0091812Y0011034D01*
X0091737Y0010935D01*
X0091666Y0010834D01*
X0091597Y0010731D01*
X0091532Y0010626D01*
X0091470Y0010519D01*
X0091412Y0010410D01*
X0091357Y0010299D01*
X0091306Y0010187D01*
X0091258Y0010073D01*
X0091214Y0009957D01*
X0091173Y0009840D01*
X0091137Y0009722D01*
X0091104Y0009603D01*
X0091075Y0009483D01*
X0091049Y0009362D01*
X0091028Y0009240D01*
X0091010Y0009117D01*
X0090997Y0008995D01*
X0090987Y0008871D01*
X0090981Y0008748D01*
X0090979Y0008624D01*
X0101127Y0010674D02*
X0102494Y0008738D01*
X0102494Y0006574D01*
X0102494Y0008738D02*
X0103860Y0010674D01*
X0105498Y0009307D02*
X0105498Y0007257D01*
X0105500Y0007206D01*
X0105506Y0007155D01*
X0105515Y0007105D01*
X0105528Y0007056D01*
X0105545Y0007007D01*
X0105566Y0006961D01*
X0105590Y0006916D01*
X0105617Y0006872D01*
X0105647Y0006831D01*
X0105680Y0006792D01*
X0105716Y0006756D01*
X0105755Y0006723D01*
X0105796Y0006693D01*
X0105840Y0006666D01*
X0105885Y0006642D01*
X0105931Y0006621D01*
X0105980Y0006604D01*
X0106029Y0006591D01*
X0106079Y0006582D01*
X0106130Y0006576D01*
X0106181Y0006574D01*
X0107320Y0006574D01*
X0107320Y0009307D01*
X0109109Y0009307D02*
X0109109Y0006574D01*
X0110768Y0007257D02*
X0110768Y0008624D01*
X0110770Y0008675D01*
X0110776Y0008726D01*
X0110785Y0008776D01*
X0110798Y0008825D01*
X0110815Y0008874D01*
X0110836Y0008920D01*
X0110860Y0008966D01*
X0110887Y0009009D01*
X0110917Y0009050D01*
X0110950Y0009089D01*
X0110986Y0009125D01*
X0111025Y0009158D01*
X0111066Y0009188D01*
X0111110Y0009215D01*
X0111155Y0009239D01*
X0111201Y0009260D01*
X0111250Y0009277D01*
X0111299Y0009290D01*
X0111349Y0009299D01*
X0111400Y0009305D01*
X0111451Y0009307D01*
X0112362Y0009307D01*
X0114003Y0009307D02*
X0115141Y0009307D01*
X0115192Y0009305D01*
X0115243Y0009299D01*
X0115293Y0009290D01*
X0115342Y0009277D01*
X0115391Y0009260D01*
X0115437Y0009239D01*
X0115482Y0009215D01*
X0115526Y0009188D01*
X0115567Y0009158D01*
X0115606Y0009125D01*
X0115642Y0009089D01*
X0115675Y0009050D01*
X0115705Y0009009D01*
X0115732Y0008966D01*
X0115756Y0008920D01*
X0115777Y0008874D01*
X0115794Y0008825D01*
X0115807Y0008776D01*
X0115816Y0008726D01*
X0115822Y0008675D01*
X0115824Y0008624D01*
X0115825Y0008624D02*
X0115825Y0006574D01*
X0117614Y0006574D02*
X0117614Y0009307D01*
X0117728Y0010446D02*
X0117500Y0010446D01*
X0117500Y0010674D01*
X0117728Y0010674D01*
X0117728Y0010446D01*
X0121200Y0010674D02*
X0123478Y0010674D01*
X0122339Y0010674D02*
X0122339Y0006574D01*
X0125143Y0009307D02*
X0126054Y0009307D01*
X0126105Y0009305D01*
X0126156Y0009299D01*
X0126206Y0009290D01*
X0126255Y0009277D01*
X0126304Y0009260D01*
X0126350Y0009239D01*
X0126395Y0009215D01*
X0126439Y0009188D01*
X0126480Y0009158D01*
X0126519Y0009125D01*
X0126555Y0009089D01*
X0126588Y0009050D01*
X0126618Y0009009D01*
X0126645Y0008966D01*
X0126669Y0008920D01*
X0126690Y0008874D01*
X0126707Y0008825D01*
X0126720Y0008776D01*
X0126729Y0008726D01*
X0126735Y0008675D01*
X0126737Y0008624D01*
X0126738Y0008624D02*
X0126738Y0006574D01*
X0125713Y0006574D01*
X0125657Y0006576D01*
X0125602Y0006582D01*
X0125547Y0006591D01*
X0125493Y0006605D01*
X0125440Y0006622D01*
X0125389Y0006643D01*
X0125339Y0006667D01*
X0125291Y0006695D01*
X0125245Y0006726D01*
X0125201Y0006760D01*
X0125159Y0006798D01*
X0125121Y0006838D01*
X0125085Y0006880D01*
X0125052Y0006925D01*
X0125023Y0006972D01*
X0124997Y0007022D01*
X0124974Y0007072D01*
X0124955Y0007125D01*
X0124940Y0007178D01*
X0124928Y0007233D01*
X0124920Y0007288D01*
X0124916Y0007343D01*
X0124916Y0007399D01*
X0124920Y0007454D01*
X0124928Y0007509D01*
X0124940Y0007564D01*
X0124955Y0007617D01*
X0124974Y0007670D01*
X0124997Y0007720D01*
X0125023Y0007769D01*
X0125052Y0007817D01*
X0125085Y0007862D01*
X0125121Y0007904D01*
X0125159Y0007944D01*
X0125201Y0007982D01*
X0125245Y0008016D01*
X0125291Y0008047D01*
X0125339Y0008075D01*
X0125389Y0008099D01*
X0125440Y0008120D01*
X0125493Y0008137D01*
X0125547Y0008151D01*
X0125602Y0008160D01*
X0125657Y0008166D01*
X0125713Y0008168D01*
X0126738Y0008168D01*
X0128768Y0007941D02*
X0130590Y0009307D01*
X0129565Y0008510D02*
X0130590Y0006574D01*
X0132093Y0007257D02*
X0132093Y0008396D01*
X0132093Y0007941D02*
X0133915Y0007941D01*
X0133915Y0008396D01*
X0133913Y0008456D01*
X0133907Y0008515D01*
X0133897Y0008574D01*
X0133884Y0008632D01*
X0133867Y0008689D01*
X0133846Y0008745D01*
X0133821Y0008799D01*
X0133793Y0008852D01*
X0133761Y0008902D01*
X0133727Y0008951D01*
X0133689Y0008997D01*
X0133648Y0009040D01*
X0133605Y0009081D01*
X0133559Y0009119D01*
X0133510Y0009153D01*
X0133460Y0009185D01*
X0133407Y0009213D01*
X0133353Y0009238D01*
X0133297Y0009259D01*
X0133240Y0009276D01*
X0133182Y0009289D01*
X0133123Y0009299D01*
X0133064Y0009305D01*
X0133004Y0009307D01*
X0132944Y0009305D01*
X0132885Y0009299D01*
X0132826Y0009289D01*
X0132768Y0009276D01*
X0132711Y0009259D01*
X0132655Y0009238D01*
X0132601Y0009213D01*
X0132549Y0009185D01*
X0132498Y0009153D01*
X0132449Y0009119D01*
X0132403Y0009081D01*
X0132360Y0009040D01*
X0132319Y0008997D01*
X0132281Y0008951D01*
X0132247Y0008902D01*
X0132215Y0008852D01*
X0132187Y0008799D01*
X0132162Y0008745D01*
X0132141Y0008689D01*
X0132124Y0008632D01*
X0132111Y0008574D01*
X0132101Y0008515D01*
X0132095Y0008456D01*
X0132093Y0008396D01*
X0132093Y0007257D02*
X0132095Y0007206D01*
X0132101Y0007155D01*
X0132110Y0007105D01*
X0132123Y0007056D01*
X0132140Y0007007D01*
X0132161Y0006961D01*
X0132185Y0006916D01*
X0132212Y0006872D01*
X0132242Y0006831D01*
X0132275Y0006792D01*
X0132311Y0006756D01*
X0132350Y0006723D01*
X0132391Y0006693D01*
X0132435Y0006666D01*
X0132480Y0006642D01*
X0132526Y0006621D01*
X0132575Y0006604D01*
X0132624Y0006591D01*
X0132674Y0006582D01*
X0132725Y0006576D01*
X0132776Y0006574D01*
X0133915Y0006574D01*
X0135738Y0007257D02*
X0135738Y0009307D01*
X0137560Y0009307D02*
X0137560Y0006574D01*
X0136421Y0006574D01*
X0136370Y0006576D01*
X0136319Y0006582D01*
X0136269Y0006591D01*
X0136220Y0006604D01*
X0136171Y0006621D01*
X0136125Y0006642D01*
X0136080Y0006666D01*
X0136036Y0006693D01*
X0135995Y0006723D01*
X0135956Y0006756D01*
X0135920Y0006792D01*
X0135887Y0006831D01*
X0135857Y0006872D01*
X0135830Y0006916D01*
X0135806Y0006961D01*
X0135785Y0007007D01*
X0135768Y0007056D01*
X0135755Y0007105D01*
X0135746Y0007155D01*
X0135740Y0007206D01*
X0135738Y0007257D01*
X0139387Y0007257D02*
X0139387Y0008624D01*
X0139388Y0008624D02*
X0139390Y0008675D01*
X0139396Y0008726D01*
X0139405Y0008776D01*
X0139418Y0008825D01*
X0139435Y0008874D01*
X0139456Y0008920D01*
X0139480Y0008966D01*
X0139507Y0009009D01*
X0139537Y0009050D01*
X0139570Y0009089D01*
X0139606Y0009125D01*
X0139645Y0009158D01*
X0139686Y0009188D01*
X0139730Y0009215D01*
X0139775Y0009239D01*
X0139821Y0009260D01*
X0139870Y0009277D01*
X0139919Y0009290D01*
X0139969Y0009299D01*
X0140020Y0009305D01*
X0140071Y0009307D01*
X0140982Y0009307D01*
X0142622Y0009307D02*
X0143761Y0009307D01*
X0143812Y0009305D01*
X0143863Y0009299D01*
X0143913Y0009290D01*
X0143962Y0009277D01*
X0144011Y0009260D01*
X0144057Y0009239D01*
X0144102Y0009215D01*
X0144146Y0009188D01*
X0144187Y0009158D01*
X0144226Y0009125D01*
X0144262Y0009089D01*
X0144295Y0009050D01*
X0144325Y0009009D01*
X0144352Y0008966D01*
X0144376Y0008920D01*
X0144397Y0008874D01*
X0144414Y0008825D01*
X0144427Y0008776D01*
X0144436Y0008726D01*
X0144442Y0008675D01*
X0144444Y0008624D01*
X0144445Y0008624D02*
X0144445Y0006574D01*
X0146234Y0006574D02*
X0146234Y0009307D01*
X0146347Y0010446D02*
X0146120Y0010446D01*
X0146120Y0010674D01*
X0146347Y0010674D01*
X0146347Y0010446D01*
X0142622Y0010674D02*
X0142622Y0006574D01*
X0140982Y0006574D02*
X0140071Y0006574D01*
X0140020Y0006576D01*
X0139969Y0006582D01*
X0139919Y0006591D01*
X0139870Y0006604D01*
X0139821Y0006621D01*
X0139775Y0006642D01*
X0139730Y0006666D01*
X0139686Y0006693D01*
X0139645Y0006723D01*
X0139606Y0006756D01*
X0139570Y0006792D01*
X0139537Y0006831D01*
X0139507Y0006872D01*
X0139480Y0006916D01*
X0139456Y0006961D01*
X0139435Y0007007D01*
X0139418Y0007056D01*
X0139405Y0007105D01*
X0139396Y0007155D01*
X0139390Y0007206D01*
X0139388Y0007257D01*
X0150090Y0006574D02*
X0152367Y0006574D01*
X0156076Y0007143D02*
X0156123Y0007243D01*
X0156166Y0007343D01*
X0156206Y0007445D01*
X0156242Y0007548D01*
X0156275Y0007653D01*
X0156305Y0007758D01*
X0156331Y0007864D01*
X0156354Y0007971D01*
X0156374Y0008079D01*
X0156390Y0008187D01*
X0156402Y0008296D01*
X0156411Y0008405D01*
X0156416Y0008515D01*
X0156418Y0008624D01*
X0154139Y0008624D02*
X0154141Y0008733D01*
X0154146Y0008843D01*
X0154155Y0008952D01*
X0154167Y0009061D01*
X0154183Y0009169D01*
X0154203Y0009277D01*
X0154226Y0009384D01*
X0154252Y0009490D01*
X0154282Y0009595D01*
X0154315Y0009700D01*
X0154351Y0009803D01*
X0154391Y0009905D01*
X0154434Y0010006D01*
X0154481Y0010105D01*
X0154482Y0010104D02*
X0154501Y0010156D01*
X0154524Y0010206D01*
X0154550Y0010254D01*
X0154579Y0010301D01*
X0154611Y0010346D01*
X0154646Y0010388D01*
X0154684Y0010428D01*
X0154724Y0010466D01*
X0154767Y0010501D01*
X0154812Y0010533D01*
X0154858Y0010562D01*
X0154907Y0010587D01*
X0154957Y0010610D01*
X0155009Y0010629D01*
X0155061Y0010645D01*
X0155115Y0010658D01*
X0155169Y0010667D01*
X0155224Y0010672D01*
X0155279Y0010674D01*
X0155334Y0010672D01*
X0155389Y0010667D01*
X0155443Y0010658D01*
X0155497Y0010645D01*
X0155549Y0010629D01*
X0155601Y0010610D01*
X0155651Y0010587D01*
X0155700Y0010562D01*
X0155746Y0010533D01*
X0155791Y0010501D01*
X0155834Y0010466D01*
X0155874Y0010428D01*
X0155912Y0010388D01*
X0155947Y0010346D01*
X0155979Y0010301D01*
X0156008Y0010254D01*
X0156034Y0010206D01*
X0156057Y0010156D01*
X0156076Y0010104D01*
X0156190Y0009763D02*
X0154367Y0007485D01*
X0155279Y0006574D02*
X0155334Y0006576D01*
X0155389Y0006581D01*
X0155443Y0006590D01*
X0155497Y0006603D01*
X0155549Y0006619D01*
X0155601Y0006638D01*
X0155651Y0006661D01*
X0155700Y0006686D01*
X0155746Y0006715D01*
X0155791Y0006747D01*
X0155834Y0006782D01*
X0155874Y0006820D01*
X0155912Y0006860D01*
X0155947Y0006902D01*
X0155979Y0006947D01*
X0156008Y0006994D01*
X0156034Y0007042D01*
X0156057Y0007092D01*
X0156076Y0007144D01*
X0155279Y0006574D02*
X0155224Y0006576D01*
X0155169Y0006581D01*
X0155115Y0006590D01*
X0155061Y0006603D01*
X0155009Y0006619D01*
X0154957Y0006638D01*
X0154907Y0006661D01*
X0154858Y0006686D01*
X0154812Y0006715D01*
X0154767Y0006747D01*
X0154724Y0006782D01*
X0154684Y0006820D01*
X0154646Y0006860D01*
X0154611Y0006902D01*
X0154579Y0006947D01*
X0154550Y0006994D01*
X0154524Y0007042D01*
X0154501Y0007092D01*
X0154482Y0007144D01*
X0156418Y0008624D02*
X0156416Y0008733D01*
X0156411Y0008843D01*
X0156402Y0008952D01*
X0156390Y0009061D01*
X0156374Y0009169D01*
X0156354Y0009277D01*
X0156331Y0009384D01*
X0156305Y0009490D01*
X0156275Y0009595D01*
X0156242Y0009700D01*
X0156206Y0009803D01*
X0156166Y0009905D01*
X0156123Y0010006D01*
X0156076Y0010105D01*
X0154139Y0008624D02*
X0154141Y0008515D01*
X0154146Y0008405D01*
X0154155Y0008296D01*
X0154167Y0008187D01*
X0154183Y0008079D01*
X0154203Y0007971D01*
X0154226Y0007864D01*
X0154252Y0007758D01*
X0154282Y0007653D01*
X0154315Y0007548D01*
X0154351Y0007445D01*
X0154391Y0007343D01*
X0154434Y0007243D01*
X0154481Y0007143D01*
X0152026Y0008852D02*
X0150090Y0006574D01*
X0150089Y0009763D02*
X0150112Y0009828D01*
X0150138Y0009892D01*
X0150168Y0009954D01*
X0150201Y0010015D01*
X0150237Y0010073D01*
X0150276Y0010130D01*
X0150318Y0010185D01*
X0150363Y0010238D01*
X0150410Y0010288D01*
X0150460Y0010335D01*
X0150513Y0010380D01*
X0150567Y0010422D01*
X0150624Y0010461D01*
X0150683Y0010497D01*
X0150744Y0010530D01*
X0150806Y0010560D01*
X0150870Y0010586D01*
X0150935Y0010609D01*
X0151001Y0010629D01*
X0151068Y0010645D01*
X0151136Y0010658D01*
X0151204Y0010667D01*
X0151273Y0010672D01*
X0151342Y0010674D01*
X0151404Y0010672D01*
X0151466Y0010667D01*
X0151527Y0010657D01*
X0151587Y0010644D01*
X0151647Y0010628D01*
X0151705Y0010607D01*
X0151763Y0010584D01*
X0151818Y0010557D01*
X0151872Y0010526D01*
X0151924Y0010493D01*
X0151974Y0010456D01*
X0152022Y0010416D01*
X0152067Y0010374D01*
X0152109Y0010329D01*
X0152149Y0010281D01*
X0152186Y0010231D01*
X0152219Y0010179D01*
X0152250Y0010125D01*
X0152277Y0010070D01*
X0152300Y0010012D01*
X0152321Y0009954D01*
X0152337Y0009894D01*
X0152350Y0009834D01*
X0152360Y0009773D01*
X0152365Y0009711D01*
X0152367Y0009649D01*
X0152365Y0009585D01*
X0152360Y0009522D01*
X0152350Y0009459D01*
X0152338Y0009397D01*
X0152321Y0009335D01*
X0152301Y0009275D01*
X0152278Y0009215D01*
X0152251Y0009158D01*
X0152221Y0009101D01*
X0152188Y0009047D01*
X0152152Y0008995D01*
X0152112Y0008945D01*
X0152070Y0008897D01*
X0152025Y0008852D01*
X0158190Y0009763D02*
X0159328Y0010674D01*
X0159328Y0006574D01*
X0158190Y0006574D02*
X0160467Y0006574D01*
X0162239Y0007713D02*
X0162241Y0007647D01*
X0162247Y0007581D01*
X0162256Y0007515D01*
X0162270Y0007450D01*
X0162287Y0007386D01*
X0162308Y0007323D01*
X0162332Y0007262D01*
X0162360Y0007202D01*
X0162392Y0007144D01*
X0162426Y0007087D01*
X0162464Y0007033D01*
X0162505Y0006981D01*
X0162550Y0006931D01*
X0162596Y0006885D01*
X0162646Y0006840D01*
X0162698Y0006799D01*
X0162752Y0006761D01*
X0162809Y0006727D01*
X0162867Y0006695D01*
X0162927Y0006667D01*
X0162988Y0006643D01*
X0163051Y0006622D01*
X0163115Y0006605D01*
X0163180Y0006591D01*
X0163246Y0006582D01*
X0163312Y0006576D01*
X0163378Y0006574D01*
X0163444Y0006576D01*
X0163510Y0006582D01*
X0163576Y0006591D01*
X0163641Y0006605D01*
X0163705Y0006622D01*
X0163768Y0006643D01*
X0163829Y0006667D01*
X0163889Y0006695D01*
X0163948Y0006727D01*
X0164004Y0006761D01*
X0164058Y0006799D01*
X0164110Y0006840D01*
X0164160Y0006885D01*
X0164206Y0006931D01*
X0164251Y0006981D01*
X0164292Y0007033D01*
X0164330Y0007087D01*
X0164364Y0007144D01*
X0164396Y0007202D01*
X0164424Y0007262D01*
X0164448Y0007323D01*
X0164469Y0007386D01*
X0164486Y0007450D01*
X0164500Y0007515D01*
X0164509Y0007581D01*
X0164515Y0007647D01*
X0164517Y0007713D01*
X0164515Y0007779D01*
X0164509Y0007845D01*
X0164500Y0007911D01*
X0164486Y0007976D01*
X0164469Y0008040D01*
X0164448Y0008103D01*
X0164424Y0008164D01*
X0164396Y0008224D01*
X0164364Y0008283D01*
X0164330Y0008339D01*
X0164292Y0008393D01*
X0164251Y0008445D01*
X0164206Y0008495D01*
X0164160Y0008541D01*
X0164110Y0008586D01*
X0164058Y0008627D01*
X0164004Y0008665D01*
X0163948Y0008699D01*
X0163889Y0008731D01*
X0163829Y0008759D01*
X0163768Y0008783D01*
X0163705Y0008804D01*
X0163641Y0008821D01*
X0163576Y0008835D01*
X0163510Y0008844D01*
X0163444Y0008850D01*
X0163378Y0008852D01*
X0163312Y0008850D01*
X0163246Y0008844D01*
X0163180Y0008835D01*
X0163115Y0008821D01*
X0163051Y0008804D01*
X0162988Y0008783D01*
X0162927Y0008759D01*
X0162867Y0008731D01*
X0162809Y0008699D01*
X0162752Y0008665D01*
X0162698Y0008627D01*
X0162646Y0008586D01*
X0162596Y0008541D01*
X0162550Y0008495D01*
X0162505Y0008445D01*
X0162464Y0008393D01*
X0162426Y0008339D01*
X0162392Y0008283D01*
X0162360Y0008224D01*
X0162332Y0008164D01*
X0162308Y0008103D01*
X0162287Y0008040D01*
X0162270Y0007976D01*
X0162256Y0007911D01*
X0162247Y0007845D01*
X0162241Y0007779D01*
X0162239Y0007713D01*
X0162467Y0009763D02*
X0162469Y0009703D01*
X0162475Y0009644D01*
X0162485Y0009585D01*
X0162498Y0009527D01*
X0162515Y0009470D01*
X0162536Y0009414D01*
X0162561Y0009360D01*
X0162589Y0009308D01*
X0162621Y0009257D01*
X0162655Y0009208D01*
X0162693Y0009162D01*
X0162734Y0009119D01*
X0162777Y0009078D01*
X0162823Y0009040D01*
X0162872Y0009006D01*
X0162923Y0008974D01*
X0162975Y0008946D01*
X0163029Y0008921D01*
X0163085Y0008900D01*
X0163142Y0008883D01*
X0163200Y0008870D01*
X0163259Y0008860D01*
X0163318Y0008854D01*
X0163378Y0008852D01*
X0163438Y0008854D01*
X0163497Y0008860D01*
X0163556Y0008870D01*
X0163614Y0008883D01*
X0163671Y0008900D01*
X0163727Y0008921D01*
X0163781Y0008946D01*
X0163834Y0008974D01*
X0163884Y0009006D01*
X0163933Y0009040D01*
X0163979Y0009078D01*
X0164022Y0009119D01*
X0164063Y0009162D01*
X0164101Y0009208D01*
X0164135Y0009257D01*
X0164167Y0009308D01*
X0164195Y0009360D01*
X0164220Y0009414D01*
X0164241Y0009470D01*
X0164258Y0009527D01*
X0164271Y0009585D01*
X0164281Y0009644D01*
X0164287Y0009703D01*
X0164289Y0009763D01*
X0164287Y0009823D01*
X0164281Y0009882D01*
X0164271Y0009941D01*
X0164258Y0009999D01*
X0164241Y0010056D01*
X0164220Y0010112D01*
X0164195Y0010166D01*
X0164167Y0010219D01*
X0164135Y0010269D01*
X0164101Y0010318D01*
X0164063Y0010364D01*
X0164022Y0010407D01*
X0163979Y0010448D01*
X0163933Y0010486D01*
X0163884Y0010520D01*
X0163834Y0010552D01*
X0163781Y0010580D01*
X0163727Y0010605D01*
X0163671Y0010626D01*
X0163614Y0010643D01*
X0163556Y0010656D01*
X0163497Y0010666D01*
X0163438Y0010672D01*
X0163378Y0010674D01*
X0163318Y0010672D01*
X0163259Y0010666D01*
X0163200Y0010656D01*
X0163142Y0010643D01*
X0163085Y0010626D01*
X0163029Y0010605D01*
X0162975Y0010580D01*
X0162923Y0010552D01*
X0162872Y0010520D01*
X0162823Y0010486D01*
X0162777Y0010448D01*
X0162734Y0010407D01*
X0162693Y0010364D01*
X0162655Y0010318D01*
X0162621Y0010269D01*
X0162589Y0010219D01*
X0162561Y0010166D01*
X0162536Y0010112D01*
X0162515Y0010056D01*
X0162498Y0009999D01*
X0162485Y0009941D01*
X0162475Y0009882D01*
X0162469Y0009823D01*
X0162467Y0009763D01*
X0166083Y0006802D02*
X0166311Y0006802D01*
X0166311Y0006574D01*
X0165970Y0005663D01*
X0166083Y0006574D02*
X0166083Y0006802D01*
X0166083Y0006574D02*
X0166311Y0006574D01*
X0170070Y0006574D02*
X0172347Y0006574D01*
X0176056Y0007143D02*
X0176103Y0007243D01*
X0176146Y0007343D01*
X0176186Y0007445D01*
X0176222Y0007548D01*
X0176255Y0007653D01*
X0176285Y0007758D01*
X0176311Y0007864D01*
X0176334Y0007971D01*
X0176354Y0008079D01*
X0176370Y0008187D01*
X0176382Y0008296D01*
X0176391Y0008405D01*
X0176396Y0008515D01*
X0176398Y0008624D01*
X0174119Y0008624D02*
X0174121Y0008733D01*
X0174126Y0008843D01*
X0174135Y0008952D01*
X0174147Y0009061D01*
X0174163Y0009169D01*
X0174183Y0009277D01*
X0174206Y0009384D01*
X0174232Y0009490D01*
X0174262Y0009595D01*
X0174295Y0009700D01*
X0174331Y0009803D01*
X0174371Y0009905D01*
X0174414Y0010006D01*
X0174461Y0010105D01*
X0175258Y0010674D02*
X0175313Y0010672D01*
X0175368Y0010667D01*
X0175422Y0010658D01*
X0175476Y0010645D01*
X0175528Y0010629D01*
X0175580Y0010610D01*
X0175630Y0010587D01*
X0175679Y0010562D01*
X0175725Y0010533D01*
X0175770Y0010501D01*
X0175813Y0010466D01*
X0175853Y0010428D01*
X0175891Y0010388D01*
X0175926Y0010346D01*
X0175958Y0010301D01*
X0175987Y0010254D01*
X0176013Y0010206D01*
X0176036Y0010156D01*
X0176055Y0010104D01*
X0176170Y0009763D02*
X0174347Y0007485D01*
X0175258Y0006574D02*
X0175313Y0006576D01*
X0175368Y0006581D01*
X0175422Y0006590D01*
X0175476Y0006603D01*
X0175528Y0006619D01*
X0175580Y0006638D01*
X0175630Y0006661D01*
X0175679Y0006686D01*
X0175725Y0006715D01*
X0175770Y0006747D01*
X0175813Y0006782D01*
X0175853Y0006820D01*
X0175891Y0006860D01*
X0175926Y0006902D01*
X0175958Y0006947D01*
X0175987Y0006994D01*
X0176013Y0007042D01*
X0176036Y0007092D01*
X0176055Y0007144D01*
X0175258Y0006574D02*
X0175203Y0006576D01*
X0175148Y0006581D01*
X0175094Y0006590D01*
X0175040Y0006603D01*
X0174988Y0006619D01*
X0174936Y0006638D01*
X0174886Y0006661D01*
X0174837Y0006686D01*
X0174791Y0006715D01*
X0174746Y0006747D01*
X0174703Y0006782D01*
X0174663Y0006820D01*
X0174625Y0006860D01*
X0174590Y0006902D01*
X0174558Y0006947D01*
X0174529Y0006994D01*
X0174503Y0007042D01*
X0174480Y0007092D01*
X0174461Y0007144D01*
X0176398Y0008624D02*
X0176396Y0008733D01*
X0176391Y0008843D01*
X0176382Y0008952D01*
X0176370Y0009061D01*
X0176354Y0009169D01*
X0176334Y0009277D01*
X0176311Y0009384D01*
X0176285Y0009490D01*
X0176255Y0009595D01*
X0176222Y0009700D01*
X0176186Y0009803D01*
X0176146Y0009905D01*
X0176103Y0010006D01*
X0176056Y0010105D01*
X0175258Y0010674D02*
X0175203Y0010672D01*
X0175148Y0010667D01*
X0175094Y0010658D01*
X0175040Y0010645D01*
X0174988Y0010629D01*
X0174936Y0010610D01*
X0174886Y0010587D01*
X0174837Y0010562D01*
X0174791Y0010533D01*
X0174746Y0010501D01*
X0174703Y0010466D01*
X0174663Y0010428D01*
X0174625Y0010388D01*
X0174590Y0010346D01*
X0174558Y0010301D01*
X0174529Y0010254D01*
X0174503Y0010206D01*
X0174480Y0010156D01*
X0174461Y0010104D01*
X0172006Y0008852D02*
X0170070Y0006574D01*
X0170069Y0009763D02*
X0170092Y0009828D01*
X0170118Y0009892D01*
X0170148Y0009954D01*
X0170181Y0010015D01*
X0170217Y0010073D01*
X0170256Y0010130D01*
X0170298Y0010185D01*
X0170343Y0010238D01*
X0170390Y0010288D01*
X0170440Y0010335D01*
X0170493Y0010380D01*
X0170547Y0010422D01*
X0170604Y0010461D01*
X0170663Y0010497D01*
X0170724Y0010530D01*
X0170786Y0010560D01*
X0170850Y0010586D01*
X0170915Y0010609D01*
X0170981Y0010629D01*
X0171048Y0010645D01*
X0171116Y0010658D01*
X0171184Y0010667D01*
X0171253Y0010672D01*
X0171322Y0010674D01*
X0171384Y0010672D01*
X0171446Y0010667D01*
X0171507Y0010657D01*
X0171567Y0010644D01*
X0171627Y0010628D01*
X0171685Y0010607D01*
X0171743Y0010584D01*
X0171798Y0010557D01*
X0171852Y0010526D01*
X0171904Y0010493D01*
X0171954Y0010456D01*
X0172002Y0010416D01*
X0172047Y0010374D01*
X0172089Y0010329D01*
X0172129Y0010281D01*
X0172166Y0010231D01*
X0172199Y0010179D01*
X0172230Y0010125D01*
X0172257Y0010070D01*
X0172280Y0010012D01*
X0172301Y0009954D01*
X0172317Y0009894D01*
X0172330Y0009834D01*
X0172340Y0009773D01*
X0172345Y0009711D01*
X0172347Y0009649D01*
X0172345Y0009585D01*
X0172340Y0009522D01*
X0172330Y0009459D01*
X0172318Y0009397D01*
X0172301Y0009335D01*
X0172281Y0009275D01*
X0172258Y0009215D01*
X0172231Y0009158D01*
X0172201Y0009101D01*
X0172168Y0009047D01*
X0172132Y0008995D01*
X0172092Y0008945D01*
X0172050Y0008897D01*
X0172005Y0008852D01*
X0174119Y0008624D02*
X0174121Y0008515D01*
X0174126Y0008405D01*
X0174135Y0008296D01*
X0174147Y0008187D01*
X0174163Y0008079D01*
X0174183Y0007971D01*
X0174206Y0007864D01*
X0174232Y0007758D01*
X0174262Y0007653D01*
X0174295Y0007548D01*
X0174331Y0007445D01*
X0174371Y0007343D01*
X0174414Y0007243D01*
X0174461Y0007143D01*
X0178170Y0006574D02*
X0180447Y0006574D01*
X0179308Y0006574D02*
X0179308Y0010674D01*
X0178170Y0009763D01*
X0182220Y0009535D02*
X0182220Y0009307D01*
X0182222Y0009247D01*
X0182228Y0009188D01*
X0182238Y0009129D01*
X0182251Y0009071D01*
X0182268Y0009014D01*
X0182289Y0008958D01*
X0182314Y0008904D01*
X0182342Y0008852D01*
X0182374Y0008801D01*
X0182408Y0008752D01*
X0182446Y0008706D01*
X0182487Y0008663D01*
X0182530Y0008622D01*
X0182576Y0008584D01*
X0182625Y0008550D01*
X0182676Y0008518D01*
X0182728Y0008490D01*
X0182782Y0008465D01*
X0182838Y0008444D01*
X0182895Y0008427D01*
X0182953Y0008414D01*
X0183012Y0008404D01*
X0183071Y0008398D01*
X0183131Y0008396D01*
X0184497Y0008396D01*
X0184497Y0009535D01*
X0184495Y0009601D01*
X0184489Y0009667D01*
X0184480Y0009733D01*
X0184466Y0009798D01*
X0184449Y0009862D01*
X0184428Y0009925D01*
X0184404Y0009986D01*
X0184376Y0010046D01*
X0184344Y0010105D01*
X0184310Y0010161D01*
X0184272Y0010215D01*
X0184231Y0010267D01*
X0184186Y0010317D01*
X0184140Y0010363D01*
X0184090Y0010408D01*
X0184038Y0010449D01*
X0183984Y0010487D01*
X0183928Y0010521D01*
X0183869Y0010553D01*
X0183809Y0010581D01*
X0183748Y0010605D01*
X0183685Y0010626D01*
X0183621Y0010643D01*
X0183556Y0010657D01*
X0183490Y0010666D01*
X0183424Y0010672D01*
X0183358Y0010674D01*
X0183292Y0010672D01*
X0183226Y0010666D01*
X0183160Y0010657D01*
X0183095Y0010643D01*
X0183031Y0010626D01*
X0182968Y0010605D01*
X0182907Y0010581D01*
X0182847Y0010553D01*
X0182789Y0010521D01*
X0182732Y0010487D01*
X0182678Y0010449D01*
X0182626Y0010408D01*
X0182576Y0010363D01*
X0182530Y0010317D01*
X0182485Y0010267D01*
X0182444Y0010215D01*
X0182406Y0010161D01*
X0182372Y0010105D01*
X0182340Y0010046D01*
X0182312Y0009986D01*
X0182288Y0009925D01*
X0182267Y0009862D01*
X0182250Y0009798D01*
X0182236Y0009733D01*
X0182227Y0009667D01*
X0182221Y0009601D01*
X0182219Y0009535D01*
X0184497Y0008396D02*
X0184495Y0008312D01*
X0184489Y0008228D01*
X0184480Y0008144D01*
X0184466Y0008061D01*
X0184449Y0007979D01*
X0184427Y0007897D01*
X0184403Y0007817D01*
X0184374Y0007738D01*
X0184342Y0007660D01*
X0184306Y0007584D01*
X0184267Y0007509D01*
X0184224Y0007437D01*
X0184178Y0007366D01*
X0184129Y0007298D01*
X0184077Y0007232D01*
X0184021Y0007169D01*
X0183963Y0007108D01*
X0183902Y0007050D01*
X0183839Y0006994D01*
X0183773Y0006942D01*
X0183705Y0006893D01*
X0183634Y0006847D01*
X0183562Y0006804D01*
X0183487Y0006765D01*
X0183411Y0006729D01*
X0183333Y0006697D01*
X0183254Y0006668D01*
X0183174Y0006644D01*
X0183092Y0006622D01*
X0183010Y0006605D01*
X0182927Y0006591D01*
X0182843Y0006582D01*
X0182759Y0006576D01*
X0182675Y0006574D01*
X0128768Y0006574D02*
X0128768Y0010674D01*
X0114003Y0010674D02*
X0114003Y0006574D01*
X0112362Y0006574D02*
X0111451Y0006574D01*
X0111400Y0006576D01*
X0111349Y0006582D01*
X0111299Y0006591D01*
X0111250Y0006604D01*
X0111201Y0006621D01*
X0111155Y0006642D01*
X0111110Y0006666D01*
X0111066Y0006693D01*
X0111025Y0006723D01*
X0110986Y0006756D01*
X0110950Y0006792D01*
X0110917Y0006831D01*
X0110887Y0006872D01*
X0110860Y0006916D01*
X0110836Y0006961D01*
X0110815Y0007007D01*
X0110798Y0007056D01*
X0110785Y0007105D01*
X0110776Y0007155D01*
X0110770Y0007206D01*
X0110768Y0007257D01*
X0109223Y0010446D02*
X0108995Y0010446D01*
X0108995Y0010674D01*
X0109223Y0010674D01*
X0109223Y0010446D01*
X0047701Y0006574D02*
X0045879Y0006574D01*
X0045879Y0008852D02*
X0047245Y0008852D01*
X0042105Y0006574D02*
X0042054Y0006576D01*
X0042003Y0006582D01*
X0041953Y0006591D01*
X0041904Y0006604D01*
X0041855Y0006621D01*
X0041809Y0006642D01*
X0041764Y0006666D01*
X0041720Y0006693D01*
X0041679Y0006723D01*
X0041640Y0006756D01*
X0041604Y0006792D01*
X0041571Y0006831D01*
X0041541Y0006872D01*
X0041514Y0006916D01*
X0041490Y0006961D01*
X0041469Y0007007D01*
X0041452Y0007056D01*
X0041439Y0007105D01*
X0041430Y0007155D01*
X0041424Y0007206D01*
X0041422Y0007257D01*
D11*
X0003500Y0003500D02*
X0003500Y0196000D01*
X0196000Y0196000D01*
X0196000Y0003500D01*
X0003500Y0003500D01*
M02*
